<svg xmlns="http://www.w3.org/2000/svg" xmlns:xlink="http://www.w3.org/1999/xlink" width="1407.509" height="612.602" viewBox="0 0 1407.509 612.602" preserveAspectRatio="none">
  <defs>
    <style>
      .cls-1 {
        fill: url(#linear-gradient);
      }

      .cls-2 {
        fill: url(#linear-gradient-2);
      }

      .cls-3 {
        fill: url(#linear-gradient-3);
      }

      .cls-4 {
        fill: url(#linear-gradient-4);
      }

      .cls-5 {
        fill: url(#linear-gradient-6);
      }

      .cls-6, .cls-8 {
        fill: #fff;
      }

      .cls-6 {
        font-size: 191px;
        font-family: Roboto-Bold, Roboto;
        font-weight: 700;
      }

      .cls-7 {
        fill: url(#linear-gradient-7);
      }

      .cls-9 {
        filter: url(#Ellipse_9);
      }
    </style>
    <linearGradient id="linear-gradient" x1="-0.027" y1="1.457" x2="0.991" gradientUnits="objectBoundingBox">
      <stop offset="0" stop-color="#053485"/>
      <stop offset="1" stop-color="#57658f"/>
    </linearGradient>
    <linearGradient id="linear-gradient-2" x1="-1.008" y1="1.722" x2="2.214" y2="-1.376" gradientUnits="objectBoundingBox">
      <stop offset="0" stop-color="#053485"/>
      <stop offset="1" stop-color="#010a26"/>
    </linearGradient>
    <linearGradient id="linear-gradient-3" x1="-1.33" y1="1.405" x2="2.916" y2="-1.238" xlink:href="#linear-gradient-2"/>
    <linearGradient id="linear-gradient-4" x1="-1.454" y1="1.759" x2="1.15" y2="0" xlink:href="#linear-gradient-2"/>
    <linearGradient id="linear-gradient-6" x1="-1.33" y1="1.405" x2="1.515" y2="-0.447" xlink:href="#linear-gradient-2"/>
    <linearGradient id="linear-gradient-7" x1="0.623" y1="-0.201" x2="0.344" y2="1.69" xlink:href="#linear-gradient-2"/>
    <filter id="Ellipse_9" x="423.2" y="427.089" width="76.714" height="76.714" filterUnits="userSpaceOnUse">
      <feOffset dy="3" input="SourceAlpha"/>
      <feGaussianBlur stdDeviation="3" result="blur"/>
      <feFlood flood-opacity="0.161"/>
      <feComposite operator="in" in2="blur"/>
      <feComposite in="SourceGraphic"/>
    </filter>
  </defs>
  <g id="background_lg" transform="translate(1.078 -70.373)">
    <g id="Group_4" data-name="Group 4" transform="translate(-1.078 70.373)">
      <g id="Group_8" data-name="Group 8" transform="translate(0 10.769)">
        <path id="Subtraction_2" data-name="Subtraction 2" class="cls-1" d="M1400.443,579.176s-94.268-126.255-318.477-145.935C912.076,418.829,858.058,533.8,720.884,521.524S583.135,412.449,472.937,398.612,370.2,485.031,280.089,466.179,187.269,308.442,117.247,291.55,0,332.877,0,332.877V0H1407.509V583.693Z"/>
      </g>
      <circle id="Ellipse_1" data-name="Ellipse 1" class="cls-2" cx="39.143" cy="39.143" r="39.143" transform="translate(112.072 105.939)"/>
      <circle id="Ellipse_2" data-name="Ellipse 2" class="cls-3" cx="58.714" cy="58.714" r="58.714" transform="translate(241.565 281.924)"/>
      <path id="Path_3" data-name="Path 3" class="cls-4" d="M69.693,0A69.693,69.693,0,1,1,0,69.693,69.693,69.693,0,0,1,69.693,0Z" transform="translate(1198.058 308.435)"/>
      <path id="Path_5" data-name="Path 5" class="cls-4" d="M141.891,74.614c11.483-51.635,141.891-8.752,141.891,62.9S340.1,313.533,261.74,313.533,0,209.175,0,137.518,130.408,126.249,141.891,74.614Z" transform="translate(856.802 -41.111)"/>
      <circle id="Ellipse_4" data-name="Ellipse 4" class="cls-5" cx="27.209" cy="27.209" r="27.209" transform="translate(640.531 394.718)"/>
      <text id="_" data-name="?" class="cls-6" transform="matrix(0.921, 0.391, -0.391, 0.921, 1204.365, 378.682)"><tspan x="0" y="0">?</tspan></text>
      <circle id="Ellipse_5" data-name="Ellipse 5" class="cls-7" cx="58.714" cy="58.714" r="58.714" transform="translate(46.968 436.458)"/>
      <circle id="Ellipse_6" data-name="Ellipse 6" class="cls-7" cx="58.714" cy="58.714" r="58.714" transform="translate(1118.633 495.173)"/>
      <circle id="Ellipse_7" data-name="Ellipse 7" class="cls-7" cx="38.427" cy="38.427" r="38.427" transform="translate(956.791 477.033)"/>
      <circle id="Ellipse_8" data-name="Ellipse 8" class="cls-7" cx="40.575" cy="40.575" r="40.575" transform="translate(279.729 515.46)"/>
      <g class="cls-9" transform="matrix(1, 0, 0, 1, 0, 0)">
        <circle id="Ellipse_9-2" data-name="Ellipse 9" class="cls-7" cx="29.357" cy="29.357" r="29.357" transform="translate(432.2 433.09)"/>
      </g>
      <circle id="Ellipse_10" data-name="Ellipse 10" class="cls-7" cx="58.714" cy="58.714" r="58.714" transform="translate(46.968 436.458)"/>
      <circle id="Ellipse_11" data-name="Ellipse 11" class="cls-7" cx="38.427" cy="38.427" r="38.427" transform="translate(956.791 477.033)"/>
    </g>
    <g id="Group_9" data-name="Group 9">
      <path id="Path_7" data-name="Path 7" class="cls-8" d="M886.178,858s21.778,151.09,208.713,112.281,219.6,79.559,219.6,79.559V858Z" transform="translate(91.935 -787.627)"/>
    </g>
  </g>
</svg>
