<svg xmlns="http://www.w3.org/2000/svg" xmlns:xlink="http://www.w3.org/1999/xlink" width="800" height="232.612" viewBox="0 0 800 232.612" preserveAspectRatio="none">
  <defs>
    <style>

      .shape {
        cy: 60;
        animation: moveCircle 4000ms ease-in-out both infinite;
      }

      @keyframes moveCircle {
        50% {
          cy: 20;
        }
      }

      .shape:nth-child(2){
        animation-delay: 100ms;
      }

      .shape:nth-child(3){
        animation-delay: 300ms;
      }

      .shape:nth-child(4){
        animation-delay: 500ms;
      }
      .shape:nth-child(5){
        animation-delay: 900ms;
      }

      .shape:nth-child(6){
        animation-delay: 800ms;
      }

      .shape:nth-child(7){
        animation-delay: 300ms;
      }

      .shape:nth-child(8){
        animation-delay: 200ms;
      }

      .shape:nth-child(9){
        animation-delay: 1000ms;
      }

      .cls-1 {
        fill: url(#linear-gradient);
      }

      .cls-12, .cls-2 {
        opacity: 0.18;
      }

      .cls-12, .cls-13, .cls-16, .cls-3, .cls-4 {
        fill: #68e1fd;
      }

      .cls-3 {
        opacity: 0.44;
      }

      .cls-5 {
        fill: url(#linear-gradient-2);
      }

      .cls-6 {
        fill: url(#linear-gradient-3);
      }

      .cls-7 {
        fill: url(#linear-gradient-4);
      }

      .cls-8 {
        fill: url(#linear-gradient-5);
      }

      .cls-9 {
        fill: #473f47;
      }

      .cls-10 {
        fill: url(#linear-gradient-6);
      }

      .cls-11 {
        fill: #fff;
      }

      .cls-13 {
        opacity: 0.5;
      }

      .cls-14 {
        fill: url(#linear-gradient-7);
      }

      .cls-15 {
        fill: #ffbbab;
      }

      .cls-16 {
        opacity: 0.16;
      }

      .cls-17 {
        fill: url(#linear-gradient-8);
      }

      .cls-18 {
        fill: url(#linear-gradient-9);
      }

      .cls-19 {
        fill: #fc682d;
      }

      .cls-20 {
        fill: none;
      }

      .cls-21 {
        fill: url(#linear-gradient-10);
      }
    </style>
    <linearGradient id="linear-gradient" x1="0.5" x2="0.5" y2="1" gradientUnits="objectBoundingBox">
      <stop offset="0" stop-color="#053485"/>
      <stop offset="1" stop-color="#57658f"/>
    </linearGradient>
    <linearGradient id="linear-gradient-2" x1="4.142" y1="0.646" x2="4.25" y2="2.924" gradientUnits="objectBoundingBox">
      <stop offset="0.01"/>
      <stop offset="0.08" stop-opacity="0.69"/>
      <stop offset="0.21" stop-opacity="0.322"/>
      <stop offset="1" stop-opacity="0"/>
    </linearGradient>
    <linearGradient id="linear-gradient-3" x1="23.472" y1="0.152" x2="18.891" y2="1.198" xlink:href="#linear-gradient-2"/>
    <linearGradient id="linear-gradient-4" x1="8.571" y1="0.599" x2="5.225" y2="0.372" xlink:href="#linear-gradient-2"/>
    <linearGradient id="linear-gradient-5" x1="3.601" y1="0.771" x2="7.442" y2="-0.01" xlink:href="#linear-gradient-2"/>
    <linearGradient id="linear-gradient-6" x1="27.14" y1="0.715" x2="24.32" y2="-0.18" xlink:href="#linear-gradient-2"/>
    <linearGradient id="linear-gradient-7" x1="6.716" y1="0.539" x2="8.912" y2="0.377" xlink:href="#linear-gradient-2"/>
    <linearGradient id="linear-gradient-8" x1="10.187" y1="1.306" x2="11.747" y2="-1.157" xlink:href="#linear-gradient-2"/>
    <linearGradient id="linear-gradient-9" x1="9.725" y1="0.581" x2="13.81" y2="0.329" xlink:href="#linear-gradient-2"/>
    <linearGradient id="linear-gradient-10" x1="0.623" y1="-0.201" x2="0.344" y2="1.69" gradientUnits="objectBoundingBox">
      <stop offset="0" stop-color="#053485"/>
      <stop offset="1" stop-color="#010a26"/>
    </linearGradient>
  </defs>
  <g id="background_info_md" transform="translate(0.997 -407.388)">
    <path id="Path_54" data-name="Path 54" class="cls-1" d="M2235.414,2075.223c-9.121,39.886-39.2,77.065-144.724,57.477-201.006-37.31-284.088,37.31-324.29,65.544s-101.843,6.05-155.444-19.159-175.542,24.5-175.542,24.5v98.316h800Z" transform="translate(-1436.411 -1661.906)"/>
    <g id="Team_work_Monochromatic" data-name="Team work_Monochromatic" transform="translate(486.515 407.388)">
      <path id="Path_9" data-name="Path 9" class="cls-2" d="M117.642,156.777c-11.148,5.987-19.277,16.936-22.894,29.06-2.14,7.181-2.808,14.749-5.248,21.84-6.944,20.155-26.959,33.267-35.486,52.795a47.582,47.582,0,0,0-1.58,34.726c4,11.174,12.95,20.62,24.145,24.565,6.86,2.417,14.235,2.778,21.505,3.01,13.607.434,27.323.484,40.721-1.933,6.38-1.152,12.667-2.859,19.107-3.6,12.46-1.441,25.18.749,37.56-1.259,8.62-1.4,16.792-4.8,24.6-8.713,5.862-2.94,11.625-6.226,16.464-10.659,12.789-11.731,17.526-30.751,14.091-47.761S236.39,216.895,222.8,206.107c-5.975-4.744-12.486-8.76-18.751-13.115A209.682,209.682,0,0,1,181.1,174.533C163.855,158.538,141.613,143.911,117.642,156.777Z" transform="translate(-49.876 -151.854)"/>
      <path id="Path_10" data-name="Path 10" class="cls-3" d="M283.613,911.546l-11.695,1.626a3,3,0,0,0-1.573.533,2.025,2.025,0,0,0-.262,2.461,5.955,5.955,0,0,0,1.9,1.854c-2.778.662-7.6.515-7.464,4.478a3.888,3.888,0,0,0,2.367,3.384,7.624,7.624,0,0,0,2.614.4c8.647.309,17.437.6,25.812-1.569,1.6-.413,3.488-1.317,3.49-2.965,0-.585-.257-1.144-.286-1.729-.185-3.739,7.809-1.544,9.87-1.425q6.86.4,13.72.573c9.342.249,18.694.235,28.034.1a49.865,49.865,0,0,1,8.838.372c2.3.377,4.528,1.089,6.785,1.663a58.121,58.121,0,0,0,22.738,1.168c3.43-.514,7.659-2.353,7.436-5.819-.19-2.974-3.572-4.518-6.45-5.289a99.36,99.36,0,0,0-12.971-2.573,193.388,193.388,0,0,0-23.325-1.156c-16.921-.135-33.841-.146-50.766-.156C296.745,907.48,289.25,910.762,283.613,911.546Z" transform="translate(-227.701 -777.886)"/>
      <path id="Path_11" data-name="Path 11" class="cls-4" d="M460.13,606.636h47.227L499,576.6H467.179Z" transform="translate(-381.216 -477.711)"/>
      <path id="Path_12" data-name="Path 12" class="cls-5" d="M460.13,606.636h47.227L499,576.6H467.179Z" transform="translate(-381.216 -477.711)"/>
      <path id="Path_13" data-name="Path 13" class="cls-4" d="M387.063,219.576v77.443a8.476,8.476,0,0,1-8.479,8.478H256.207a8.476,8.476,0,0,1-8.477-8.479V219.576a8.479,8.479,0,0,1,8.477-8.476H378.585a8.479,8.479,0,0,1,8.478,8.474Z" transform="translate(-213.797 -200.939)"/>
      <path id="Path_14" data-name="Path 14" class="cls-6" d="M300.108,653.082a.644.644,0,0,1-.4.686,1.956,1.956,0,0,1-.857.122l-1.233-.012a.458.458,0,0,0-.54.576l-.125,5.282a7.492,7.492,0,0,0,.487,3.538c.266.535.657,1,.938,1.528a2.079,2.079,0,0,1,.226,1.715q-3.142.13-6.284.009a1.544,1.544,0,0,1-1.087-.331,1.514,1.514,0,0,1-.295-.562,44.806,44.806,0,0,1-1.521-5.341,20.908,20.908,0,0,1-.585-5.255A10.166,10.166,0,0,1,290.27,650a3.272,3.272,0,0,1,.857-.976,3.711,3.711,0,0,1,1.2-.485,34.588,34.588,0,0,1,6.375-.833,3.352,3.352,0,0,1,2.092.314,2.246,2.246,0,0,1,.871,2.007,6.581,6.581,0,0,1-.64,2.183" transform="translate(-247.839 -562.639)"/>
      <path id="Path_15" data-name="Path 15" class="cls-7" d="M912.885,663.989q-1.978-6.55-4.514-12.914a.866.866,0,0,0-.323-.47.881.881,0,0,0-.569-.046l-3.679.523a17.076,17.076,0,0,0,1.814,5.9,49.4,49.4,0,0,1,3.113,10.537,2.608,2.608,0,0,0,.333,1.029,2.377,2.377,0,0,0,1.544.8c1.8.377,2.976.926,3.279-.905C914.1,667.145,913.267,665.221,912.885,663.989Z" transform="translate(-757.347 -565.006)"/>
      <path id="Path_16" data-name="Path 16" class="cls-8" d="M797.288,671.838l-3.945-.045a1.111,1.111,0,0,0-.779.187c-.2.187-.235.432-.381.633a1.6,1.6,0,0,1-1.508.382,34.641,34.641,0,0,1-5.606-1.073l.7-4.821A42.43,42.43,0,0,0,796,668.113l.182-5.8-5.216-.046a1.049,1.049,0,0,1-.636-.142,1.036,1.036,0,0,1-.286-.835,14.4,14.4,0,0,1,.12-2.121.631.631,0,0,1,.187-.444.654.654,0,0,1,.489-.063,63.2,63.2,0,0,0,11.986.437,61.409,61.409,0,0,0,3.206,17.4c-2.123-.23-4.631.132-6.689-.329-.974-.22-.928-.326-1.242-1.372A25.544,25.544,0,0,0,797.288,671.838Z" transform="translate(-658.98 -571.719)"/>
      <path id="Path_17" data-name="Path 17" class="cls-9" d="M387.063,219.576v67.916H247.73V219.576a8.479,8.479,0,0,1,8.477-8.476H378.585a8.479,8.479,0,0,1,8.477,8.474Z" transform="translate(-213.797 -200.939)"/>
      <path id="Path_18" data-name="Path 18" class="cls-4" d="M302.963,623.072a14.029,14.029,0,0,0,5.248,2.609.868.868,0,0,1,.636.3.8.8,0,0,1,.028.58,23.532,23.532,0,0,1-1.23,4.037,20.311,20.311,0,0,1-7.973-2.811,2.887,2.887,0,0,1-1.012-.885,3.17,3.17,0,0,1-.331-1.382c-.1-1.307-.3-3.176.487-4.336.611-.906.95-.31,1.763.249Z" transform="translate(-255.637 -540.306)"/>
      <path id="Path_19" data-name="Path 19" class="cls-10" d="M297.2,621.8a14.024,14.024,0,0,0,5.248,2.609c.238.043.515.093.636.3a.8.8,0,0,1,.027.58,23.517,23.517,0,0,1-1.228,4.036,20.3,20.3,0,0,1-7.975-2.811,2.881,2.881,0,0,1-1.012-.883,3.154,3.154,0,0,1-.331-1.382c-.1-1.308-.295-3.176.487-4.336.611-.906.95-.311,1.765.249Z" transform="translate(-250.865 -539.254)"/>
      <path id="Path_20" data-name="Path 20" class="cls-11" d="M395.131,230.713v64.026H260V230.713a8.179,8.179,0,0,1,8.222-8.133H386.914A8.17,8.17,0,0,1,395.131,230.713Z" transform="translate(-223.963 -210.45)"/>
      <path id="Path_21" data-name="Path 21" class="cls-12" d="M395.131,230.713v64.026H260V230.713a8.179,8.179,0,0,1,8.222-8.133H386.914A8.17,8.17,0,0,1,395.131,230.713Z" transform="translate(-223.963 -210.45)"/>
      <path id="Path_22" data-name="Path 22" class="cls-4" d="M773.333,355.6a10.6,10.6,0,0,1,.972-4.459l-6.649-3.62a18.257,18.257,0,0,0,11.9,25.779l1.346-7.466A10.71,10.71,0,0,1,773.333,355.6Z" transform="translate(-642.992 -313.962)"/>
      <path id="Path_23" data-name="Path 23" class="cls-13" d="M866.3,431.851a18.274,18.274,0,0,1-20.15,8.318L847.5,432.7a10.519,10.519,0,0,0,3.142.472,10.7,10.7,0,0,0,9.021-4.943Z" transform="translate(-709.585 -380.829)"/>
      <path id="Path_24" data-name="Path 24" class="cls-11" d="M811.407,306.427a18.144,18.144,0,0,1-2.6,9.385l-6.651-3.62a10.7,10.7,0,1,0-18.751-10.22l-6.649-3.62a18.265,18.265,0,0,1,34.644,8.076Z" transform="translate(-652.095 -264.789)"/>
      <rect id="Rectangle_3" data-name="Rectangle 3" class="cls-12" width="44.506" height="40.887" transform="translate(47.719 20.513)"/>
      <path id="Path_25" data-name="Path 25" class="cls-11" d="M824.056,954.267c-2.444.142-5.061.244-7.15-1.029a1,1,0,0,1-.369-.333.686.686,0,0,1,.065-.7,1.51,1.51,0,0,1,.566-.465,8.03,8.03,0,0,1,2.485-.717c1.053-.184,2.106-.369,3.171-.475.686-.067,1.842-.343,2.4.208.437.436.343,1.2.271,1.76C825.354,953.5,825.162,954.2,824.056,954.267Z" transform="translate(-684.995 -813.462)"/>
      <path id="Path_26" data-name="Path 26" class="cls-11" d="M919.848,939.533c-1.928,1.509-4.022,3.087-6.464,3.226a1,1,0,0,1-.492-.064.686.686,0,0,1-.343-.612,1.529,1.529,0,0,1,.2-.7,8.1,8.1,0,0,1,1.635-2.005c.762-.749,1.523-1.5,2.336-2.2.515-.442,1.321-1.331,2.086-1.2.607.11.971.8,1.224,1.293C920.481,938.168,920.719,938.85,919.848,939.533Z" transform="translate(-764.595 -801.485)"/>
      <path id="Path_27" data-name="Path 27" class="cls-9" d="M843.665,784.421q.016,1.219.038,2.432a23.158,23.158,0,0,0,4.44.124.437.437,0,0,0,.515-.492c.316-4.024-.2-8.088.269-12.1a8.649,8.649,0,0,1,.575-2.448,11.325,11.325,0,0,1,1.372-2.168,50.585,50.585,0,0,0,4.116-6.728,15.772,15.772,0,0,0,1.526-7.658c-.034-2.639-1.384-3.783-3.96-3.1a2.14,2.14,0,0,0-1.7,1.276,63.2,63.2,0,0,0-4.128,7.872C843.77,768.639,843.569,776.6,843.665,784.421Z" transform="translate(-707.511 -649.148)"/>
      <path id="Path_28" data-name="Path 28" class="cls-14" d="M843.665,784.421q.016,1.219.038,2.432a23.158,23.158,0,0,0,4.44.124.437.437,0,0,0,.515-.492c.316-4.024-.2-8.088.269-12.1a8.649,8.649,0,0,1,.575-2.448,11.325,11.325,0,0,1,1.372-2.168,50.585,50.585,0,0,0,4.116-6.728,15.772,15.772,0,0,0,1.526-7.658c-.034-2.639-1.384-3.783-3.96-3.1a2.14,2.14,0,0,0-1.7,1.276,63.2,63.2,0,0,0-4.128,7.872C843.77,768.639,843.569,776.6,843.665,784.421Z" transform="translate(-707.511 -649.148)"/>
      <path id="Path_29" data-name="Path 29" class="cls-15" d="M771.327,610.722a21.811,21.811,0,0,1-12.635-9.465,2.805,2.805,0,0,1-.545-2.428.42.42,0,0,1,.19-.238c.147-.067.314.026.451.113l6.81,4.459a20.281,20.281,0,0,0,6,3.032,7.755,7.755,0,0,1,.686,2.1A3.876,3.876,0,0,1,771.327,610.722Z" transform="translate(-636.577 -521.953)"/>
      <rect id="Rectangle_4" data-name="Rectangle 4" class="cls-11" width="79.843" height="64.339" transform="translate(132.25 100.093) rotate(180)"/>
      <path id="Path_30" data-name="Path 30" class="cls-16" d="M753.318,713.766a2.79,2.79,0,0,0,1.233.468,33.885,33.885,0,0,0,8.886.574,1.4,1.4,0,0,0,.821-.235,1.314,1.314,0,0,0,.369-.948,8.852,8.852,0,0,0-.183-2.724c-.026-.115-7.22-.1-7.9,0C755.516,711.057,751.62,712.394,753.318,713.766Z" transform="translate(-632.323 -614.954)"/>
      <path id="Path_31" data-name="Path 31" class="cls-16" d="M361.54,556.351a5.054,5.054,0,0,1,.031,1.744,6.084,6.084,0,0,1-1.19,2.211,37.254,37.254,0,0,0-5.1,9.992,21.952,21.952,0,0,1-.5-5.972,10.2,10.2,0,0,1,.163-2.109,13.24,13.24,0,0,1,1.1-2.744,20.667,20.667,0,0,0,1.444-4.382c.223-1.065.6-3.765,2.279-3.583C361.183,551.657,361.386,555.283,361.54,556.351Z" transform="translate(-302.485 -482.958)"/>
      <path id="Path_32" data-name="Path 32" class="cls-9" d="M891.988,748.452a37.6,37.6,0,0,1-2.708,7.347c-.95,1.993-3.147,4.557-3.137,6.816.017,4.058,4.288,9.489,6.9,12.275a23.175,23.175,0,0,1-4.42,2.279,1.708,1.708,0,0,1-1.082.154,1.783,1.783,0,0,1-.907-.928l-2.859-4.974c-1.593-2.766-3.231-5.675-3.363-8.865a22.386,22.386,0,0,1,.235-3.451c.305-2.442.028-5.21.614-7.584.537-2.164,1.24-4.312,1.744-6.517a4.818,4.818,0,0,1,1.482-2.969,3.941,3.941,0,0,1,1.286-.564c2.229-.626,4.641-.708,5.862,1.6A7.915,7.915,0,0,1,891.988,748.452Z" transform="translate(-737.967 -640.036)"/>
      <path id="Path_33" data-name="Path 33" class="cls-4" d="M829.062,637.613c-1.214.441-.079,3.276.247,4.116a.965.965,0,0,0,.353.515,1,1,0,0,0,.607.072q2.744-.255,5.457-.65a2.879,2.879,0,0,0,1.154-.343,1.96,1.96,0,0,0,.8-1.3c.172-.857.25-2.888-.487-3.538-.535-.47-1.6-.137-2.3-.065A24.578,24.578,0,0,0,829.062,637.613Z" transform="translate(-694.973 -553.166)"/>
      <path id="Path_34" data-name="Path 34" class="cls-17" d="M829.062,637.613c-1.214.441-.079,3.276.247,4.116a.965.965,0,0,0,.353.515,1,1,0,0,0,.607.072q2.744-.255,5.457-.65a2.879,2.879,0,0,0,1.154-.343,1.96,1.96,0,0,0,.8-1.3c.172-.857.25-2.888-.487-3.538-.535-.47-1.6-.137-2.3-.065A24.578,24.578,0,0,0,829.062,637.613Z" transform="translate(-694.973 -553.166)"/>
      <path id="Path_35" data-name="Path 35" class="cls-15" d="M848.255,568.769c-.216.36-.653.571-.8.966-.172.477.161.969.331,1.446.236.666.172,1.41.394,2.077a.791.791,0,0,0,.235.375.866.866,0,0,0,.353.139,5.1,5.1,0,0,0,1.506.088.45.45,0,0,1,.293.039.414.414,0,0,1,.13.256,8.061,8.061,0,0,1-.06,3.83c-.108.413-.228.916.077,1.214a.852.852,0,0,0,.389.2,2.765,2.765,0,0,0,2.518-1.214,11.185,11.185,0,0,0,1.477-2.171,2.122,2.122,0,0,0,.254-.7,2.469,2.469,0,0,0-.132-.943,16,16,0,0,1-.494-3.185,12.3,12.3,0,0,0-.5-4.087,2.145,2.145,0,0,0-.835-1.073,2.705,2.705,0,0,0-1.483-.239,3.884,3.884,0,0,0-2.784.909C848.932,566.907,848.521,568.322,848.255,568.769Z" transform="translate(-710.63 -494.788)"/>
      <path id="Path_36" data-name="Path 36" class="cls-9" d="M851.858,553.571c-.408-.076-.715.472-.556.857a1.258,1.258,0,0,0,1,.65,8.844,8.844,0,0,1,1.23.18,1,1,0,0,1,.763.876.921.921,0,0,1,1.029.686,2.816,2.816,0,0,1-.048,1.36c.125.135.36.043.48-.1s.2-.329.357-.42c.343-.2.772.247.724.643a1.774,1.774,0,0,1-.655.974.624.624,0,0,0-.171.22c-.12.333.324.571.669.646a1.886,1.886,0,0,0,.089.765.645.645,0,0,0,.586.431c.232-.012.417-.187.629-.278s.54-.033.559.2c.359-.748-.022-1.444.132-2.154.141-.65.714-.408,1.106-.845.218-.244.2-.609.3-.918.129-.4.458-.712.547-1.118.151-.686-.42-1.305-.941-1.78a.65.65,0,0,0-.172-.751,1.461,1.461,0,0,0-.75-.326.4.4,0,0,1-.2-.081c-.089-.086-.07-.23-.06-.353.172-2.084-3.234-1.506-4.488-1.4a3.23,3.23,0,0,0-1.461.5C852.431,552.132,851.4,553.487,851.858,553.571Z" transform="translate(-713.818 -482.862)"/>
      <path id="Path_37" data-name="Path 37" class="cls-4" d="M863.881,621.846l-.086.019c-1.82.455-4.476,2.116-5.073,3.962a16.221,16.221,0,0,0-.7,7.833c.375,1.665,1.386,3.118,1.809,4.742a37.86,37.86,0,0,0,1.283,5.317,3.95,3.95,0,0,0,1.46,1.99,4.39,4.39,0,0,0,2.012.441c2.041.108,4.907.8,6.6-.6a5.5,5.5,0,0,0,1.731-4.56,16.225,16.225,0,0,0-1.305-4.869l-2.84-7.409C868.088,626.926,866.426,621.344,863.881,621.846Z" transform="translate(-719.233 -541.213)"/>
      <path id="Path_38" data-name="Path 38" class="cls-18" d="M870.966,685.244a1.613,1.613,0,0,0-.213,1.514,13.5,13.5,0,0,1,.37,3.682.857.857,0,0,1-.192.612.894.894,0,0,1-.556.172,4.065,4.065,0,0,1-2.106-.211,3.69,3.69,0,0,1-1.544-1.952,37.947,37.947,0,0,1-2.058-6.958,2.989,2.989,0,0,1-.11-1.178,2.316,2.316,0,0,1,1.063-1.413c.5-.341,1.06-.592,1.543-.96.94-.722,1.635-2.029,2.916-2.194a1.9,1.9,0,0,1,1.984,1.412C872.873,680.025,871.995,683.2,870.966,685.244Z" transform="translate(-724.822 -586.39)"/>
      <path id="Path_39" data-name="Path 39" class="cls-4" d="M868.792,645.886s-2.6,7.04-3.115,7.555,5,3.629,5,3.629,3.6-6.846,3.43-9.813S870.819,643.09,868.792,645.886Z" transform="translate(-725.735 -559.848)"/>
      <path id="Path_40" data-name="Path 40" class="cls-15" d="M787.565,701.144s-.19,2.267-2.972,2.229l-4.7-.067c-2.166-.029-4.336-.1-6.5-.088a6.47,6.47,0,0,0-1.543.4,6.3,6.3,0,0,1-5.673-1.543,2.04,2.04,0,0,1-.734-2.171.494.494,0,0,1,.216-.249.6.6,0,0,1,.271-.034c1.31.041,2.667.376,3.9-.065a1.041,1.041,0,0,1-.16-.552c.019-.192.2-.384.386-.343a.575.575,0,0,1,.252.183,3.077,3.077,0,0,0,2.543,1.005c3.566-.172,7.083-.928,10.649-1.089a6.17,6.17,0,0,1,2.477.261A2.893,2.893,0,0,1,787.565,701.144Z" transform="translate(-642.621 -604.878)"/>
      <path id="Path_41" data-name="Path 41" class="cls-15" d="M356.672,959.731a2.537,2.537,0,0,1,.808.208.739.739,0,0,1,.429.665.82.82,0,0,1-.49.612c-.245.124-.515.185-.758.312a4.4,4.4,0,0,1-.66.369,1.865,1.865,0,0,1-1.187-.172,15.635,15.635,0,0,0-5.4-.894,1.974,1.974,0,0,1-.533-.036,1.617,1.617,0,0,1-.974-1.2,7.742,7.742,0,0,1,.034-3.463.775.775,0,0,1,.13-.359.675.675,0,0,1,.29-.182c1.811-.676,2.573,1.118,3.758,2.077A9.693,9.693,0,0,0,356.672,959.731Z" transform="translate(-296.641 -817.624)"/>
      <path id="Path_42" data-name="Path 42" class="cls-4" d="M346.877,972.088c.118.019.238.033.357.045a14.942,14.942,0,0,0,2.432.065.857.857,0,0,0,.444-.106.732.732,0,0,0,.268-.588,3.331,3.331,0,0,1,.045-.667.161.161,0,0,1,.062-.114.162.162,0,0,1,.125-.032,3.891,3.891,0,0,1,1.782.5,6.118,6.118,0,0,1,2.761,2.243.541.541,0,0,1,.1.288.5.5,0,0,1-.094.25c-.731,1.137-2.552.857-3.667.621-1.243-.262-2.439-.732-3.694-.93-1.372-.218-2.874-.122-4.066-.849a1.328,1.328,0,0,1-.482-.448,1.934,1.934,0,0,1,.489-1.952.282.282,0,0,1,.424-.046c.573.353.945.969,1.516,1.326a3.143,3.143,0,0,0,1.2.4Z" transform="translate(-292.832 -829.927)"/>
      <path id="Path_43" data-name="Path 43" class="cls-9" d="M272.083,711.63s-5.629,3.221-4.051,9.117c1.372,5.145,5.33,8.349,7.86,12.748,1.4,2.439,1.146,6.419,1.739,9.261a67.229,67.229,0,0,0,3,10.218c.254.669.671,1.446,1.386,1.468.343.012.659-.161,1-.172a5.177,5.177,0,0,0,.957.033c.818-.187.813-1.346.628-2.166a68.184,68.184,0,0,1-1.609-12.016c-.137-3.115.708-6.423-.171-9.443-.705-2.4-4.885-15.213-4.885-15.213Z" transform="translate(-230.386 -615.625)"/>
      <path id="Path_44" data-name="Path 44" class="cls-15" d="M289.917,969.184a2.614,2.614,0,0,1,.731.4.741.741,0,0,1,.25.751.813.813,0,0,1-.628.47c-.268.06-.545.052-.813.115a4.407,4.407,0,0,1-.731.194,1.916,1.916,0,0,1-1.108-.456,15.634,15.634,0,0,0-5-2.206,1.985,1.985,0,0,1-.515-.172,1.586,1.586,0,0,1-.647-1.4,7.684,7.684,0,0,1,.894-3.344.755.755,0,0,1,.216-.316.656.656,0,0,1,.326-.1c1.921-.206,2.218,1.715,3.123,2.947A9.7,9.7,0,0,0,289.917,969.184Z" transform="translate(-241.735 -823.968)"/>
      <path id="Path_45" data-name="Path 45" class="cls-9" d="M268.71,734.149a7.183,7.183,0,0,0-3.945,1.929c-2.36,2-2.192,6.089-1.4,9.076.419,1.574,2.916,6.517,3.283,7.91.7,2.658-.695,5.951-.816,8.637a67.473,67.473,0,0,0,.362,10.644c.082.712.292,1.566.978,1.766.326.1.686,0,1.014.074a5.045,5.045,0,0,0,.918.269c.84.022,1.123-1.1,1.147-1.942a68.019,68.019,0,0,1,1.429-12.04c.641-3.051,2.283-6.046,2.178-9.189-.086-2.573-.161-5.128-.24-7.692-.087-2.85.309-5.737-.559-8.479a1.6,1.6,0,0,0-.5-.858,1.563,1.563,0,0,0-.82-.218,16.37,16.37,0,0,0-2.543.056C269.04,734.112,268.868,734.129,268.71,734.149Z" transform="translate(-226.313 -634.169)"/>
      <path id="Path_46" data-name="Path 46" class="cls-15" d="M286.269,552.259c.214.362.653.571.794.967.171.477-.16.967-.331,1.444-.237.665-.161,1.41-.393,2.077a.786.786,0,0,1-.237.377.881.881,0,0,1-.353.137,5.1,5.1,0,0,1-1.5.089.426.426,0,0,0-.293.04.4.4,0,0,0-.13.254,8.036,8.036,0,0,0,.058,3.83c.11.413.228.916-.077,1.214a.819.819,0,0,1-.388.2,2.758,2.758,0,0,1-2.518-1.214,11.162,11.162,0,0,1-1.477-2.17,2.157,2.157,0,0,1-.256-.7,2.558,2.558,0,0,1,.132-.945,15.863,15.863,0,0,0,.494-3.185,12.252,12.252,0,0,1,.5-4.087,2.154,2.154,0,0,1,.833-1.074,2.711,2.711,0,0,1,1.485-.238,3.876,3.876,0,0,1,2.782.911C285.59,550.4,286,551.814,286.269,552.259Z" transform="translate(-239.838 -481.109)"/>
      <path id="Path_47" data-name="Path 47" class="cls-4" d="M256.359,586.729c.377-.027.758-.029,1.135-.031a9.676,9.676,0,0,1,2.058.147,3.321,3.321,0,0,1,1.789.96c.292.326.492.722.768,1.062a1.46,1.46,0,0,0,1.1.621,4.068,4.068,0,0,0,.87-.226c.418-.1.857-.022,1.274-.112a2.622,2.622,0,0,0,1.017-.658q1.082-.858,2.087-1.813a48.81,48.81,0,0,0,3.67-4.13,6.309,6.309,0,0,1,1.4,1.394,1.163,1.163,0,0,1,.262.583,1.239,1.239,0,0,1-.154.578,33.59,33.59,0,0,1-4.217,6.927,16.932,16.932,0,0,1-3.027,3.051,6.656,6.656,0,0,0-2.082,1.906c-1.029,1.907-.012,4.814,0,6.846,0,.7-.288,1.264-.286,1.972,0,1.235,1.072,2.331.686,3.6-.321,1.051-1.53,1.5-2.586,1.808l-4.149,1.2a3.76,3.76,0,0,1-2.792.062c-1.044-.573-1.274-1.947-1.372-3.133-.247-3.065-.153-6.74-1.422-9.6a8.822,8.822,0,0,1-.744-5.222,19.8,19.8,0,0,1,.936-4.572c.23-.636.532-1.255.822-1.864a2.486,2.486,0,0,1,1.432-1.051A5.2,5.2,0,0,1,256.359,586.729Z" transform="translate(-216.96 -508.683)"/>
      <path id="Path_48" data-name="Path 48" class="cls-19" d="M234.971,540.992a2.815,2.815,0,0,1-.912,1.763c-.485.458-1.092.77-1.595,1.2a1.985,1.985,0,0,0-.8,1.739.9.9,0,0,0-1.092.343.722.722,0,0,0,.117.756.908.908,0,0,0,.72.3,2.851,2.851,0,0,0-1.286,1.04,8.393,8.393,0,0,0-.789,2.027,8.782,8.782,0,0,1-.8,1.228,6.393,6.393,0,0,0-.532,2.5,6.571,6.571,0,0,1-1.569,3.665,4.19,4.19,0,0,1-3.641,1.372,3.1,3.1,0,0,1-2.59-2.715,1.654,1.654,0,0,1-1.216-1.144,4.058,4.058,0,0,1-.1-1.737,4.3,4.3,0,0,1,.514-1.8,6.4,6.4,0,0,1,2.744-1.887,10.546,10.546,0,0,0,1.293-.787,1.484,1.484,0,0,0,.47-.46,1.939,1.939,0,0,0-.026-1.353,2.732,2.732,0,0,1,.285-2.156,3.637,3.637,0,0,1,1.682-1.106l1.614-.672a.9.9,0,0,0,.364-.225.858.858,0,0,0,.144-.333,15.707,15.707,0,0,1,.635-2.345,3.4,3.4,0,0,1,3.9-1.783C233.839,538.668,235.105,539.5,234.971,540.992Z" transform="translate(-189.866 -472.058)"/>
      <path id="Path_49" data-name="Path 49" class="cls-4" d="M265.915,621s7.409,1.2,8.109,1.007.686,6.148.686,6.148-7.733-.233-10.232-1.842S262.481,621.394,265.915,621Z" transform="translate(-226.375 -540.539)"/>
      <path id="Path_50" data-name="Path 50" class="cls-4" d="M279.272,982.982c.106.032.214.06.321.087a14.2,14.2,0,0,0,2.23.365.835.835,0,0,0,.422-.043.686.686,0,0,0,.321-.515,3.017,3.017,0,0,1,.123-.607.185.185,0,0,1,.074-.1.209.209,0,0,1,.117-.014,3.586,3.586,0,0,1,1.574.686,5.692,5.692,0,0,1,2.255,2.4.528.528,0,0,1,.053.278.471.471,0,0,1-.12.219c-.811.952-2.451.466-3.446.108-1.108-.4-2.147-.979-3.276-1.319-1.24-.372-2.626-.472-3.629-1.29a1.221,1.221,0,0,1-.386-.472,1.8,1.8,0,0,1,.686-1.732.255.255,0,0,1,.391.012c.482.394.746,1.008,1.226,1.406A2.883,2.883,0,0,0,279.272,982.982Z" transform="translate(-237.091 -838.758)"/>
      <path id="Path_51" data-name="Path 51" class="cls-4" d="M382.29,410.76h69.386v48.292H382.29Zm68.774.619H382.909v47.052h68.146Z" transform="translate(-325.279 -366.356)"/>
      <path id="Path_52" data-name="Path 52" class="cls-15" d="M372.207,546.685a3.588,3.588,0,0,1,.5-2.242l.353,1.454a12.465,12.465,0,0,1,1.953-3.807,5.492,5.492,0,0,1-.4,2.4,19.2,19.2,0,0,1,1.264-2.175c.295.83-.456,1.657-.552,2.533a4.373,4.373,0,0,1,1.093-1.142.906.906,0,0,1-.124.794l-.784,1.535a3.745,3.745,0,0,1,.746-.6c.242.593-.245,1.2-.526,1.78-.208.427-.307.9-.515,1.329a3.116,3.116,0,0,1-1.94,1.65c-.3-.53-.95-.573-1.05-1.158A15.162,15.162,0,0,1,372.207,546.685Z" transform="translate(-316.887 -475.162)"/>
      <rect id="Rectangle_5" data-name="Rectangle 5" class="cls-4" width="4.859" height="32.174" transform="translate(62.422 59.901)"/>
      <rect id="Rectangle_6" data-name="Rectangle 6" class="cls-4" width="4.859" height="39.336" transform="translate(73.242 52.739)"/>
      <rect id="Rectangle_7" data-name="Rectangle 7" class="cls-4" width="4.859" height="25.769" transform="translate(84.412 66.305)"/>
      <rect id="Rectangle_8" data-name="Rectangle 8" class="cls-4" width="4.859" height="39.336" transform="translate(95.581 52.739)"/>
      <rect id="Rectangle_9" data-name="Rectangle 9" class="cls-4" width="4.859" height="33.31" transform="translate(106.751 58.766)"/>
      <rect id="Rectangle_10" data-name="Rectangle 10" class="cls-4" width="4.859" height="43.717" transform="translate(117.919 48.359)"/>
      <line id="Line_3" data-name="Line 3" class="cls-20" x1="18.751" y1="10.222" transform="translate(131.314 37.18)"/>
    </g>
    <circle id="Ellipse_14" data-name="Ellipse 14" class="cls-21 shape" cx="20.268" cy="20.268" r="20.268" transform="translate(48.955 472.694)"/>
    <circle id="Ellipse_15" data-name="Ellipse 15" class="cls-21 shape" cx="14.963" cy="14.963" r="14.963" transform="translate(710.003 510.392)"/>
    <circle id="Ellipse_22" data-name="Ellipse 22" class="cls-21 shape" cx="22.308" cy="22.308" r="22.308" transform="translate(739.928 567)"/>
    <circle id="Ellipse_16" data-name="Ellipse 16" class="cls-21 shape" cx="29" cy="29" r="29" transform="translate(32.003 538)"/>
    <circle id="Ellipse_17" data-name="Ellipse 17" class="cls-21 shape" cx="10" cy="10" r="10" transform="translate(149.003 483)"/>
    <circle id="Ellipse_18" data-name="Ellipse 18" class="cls-21 shape" cx="20" cy="20" r="20" transform="translate(710.003 417)"/>
    <circle id="Ellipse_19" data-name="Ellipse 19" class="cls-21 shape" cx="35" cy="35" r="35" transform="translate(159.003 559)"/>
    <circle id="Ellipse_21" data-name="Ellipse 21" class="cls-21 shape" cx="35" cy="35" r="35" transform="translate(386.003 457)"/>
    <circle id="Ellipse_20" data-name="Ellipse 20" class="cls-21 shape" cx="23.659" cy="23.659" r="23.659" transform="translate(250.076 493)"/>
  </g>
</svg>
