<svg xmlns="http://www.w3.org/2000/svg" xmlns:xlink="http://www.w3.org/1999/xlink" width="360.997" height="226.683" viewBox="0 0 360.997 226.683" preserveAspectRatio="none">
  <defs>
    <style>

      .shape {
        cy: 60;
        animation: moveCircle 4000ms ease-in-out both infinite;
      }

      @keyframes moveCircle {
        50% {
          cy: 20;
        }
      }

      .shape:nth-child(2){
        animation-delay: 100ms;
      }

      .shape:nth-child(3){
        animation-delay: 300ms;
      }

      .shape:nth-child(4){
        animation-delay: 500ms;
      }
      .shape:nth-child(5){
        animation-delay: 900ms;
      }

      .shape:nth-child(6){
        animation-delay: 800ms;
      }

      .cls-1 {
        fill: url(#linear-gradient);
      }

      .cls-12, .cls-2 {
        opacity: 0.18;
      }

      .cls-12, .cls-13, .cls-16, .cls-3, .cls-4 {
        fill: #68e1fd;
      }

      .cls-3 {
        opacity: 0.44;
      }

      .cls-5 {
        fill: url(#linear-gradient-2);
      }

      .cls-6 {
        fill: url(#linear-gradient-3);
      }

      .cls-7 {
        fill: url(#linear-gradient-4);
      }

      .cls-8 {
        fill: url(#linear-gradient-5);
      }

      .cls-9 {
        fill: #473f47;
      }

      .cls-10 {
        fill: url(#linear-gradient-6);
      }

      .cls-11 {
        fill: #fff;
      }

      .cls-13 {
        opacity: 0.5;
      }

      .cls-14 {
        fill: url(#linear-gradient-7);
      }

      .cls-15 {
        fill: #ffbbab;
      }

      .cls-16 {
        opacity: 0.16;
      }

      .cls-17 {
        fill: url(#linear-gradient-8);
      }

      .cls-18 {
        fill: url(#linear-gradient-9);
      }

      .cls-19 {
        fill: #fc682d;
      }

      .cls-20 {
        fill: none;
      }

      .cls-21 {
        fill: url(#linear-gradient-10);
      }
    </style>
    <linearGradient id="linear-gradient" x1="0.5" x2="0.5" y2="1" gradientUnits="objectBoundingBox">
      <stop offset="0" stop-color="#053485"/>
      <stop offset="1" stop-color="#57658f"/>
    </linearGradient>
    <linearGradient id="linear-gradient-2" x1="4.142" y1="0.646" x2="4.25" y2="2.924" gradientUnits="objectBoundingBox">
      <stop offset="0.01"/>
      <stop offset="0.08" stop-opacity="0.69"/>
      <stop offset="0.21" stop-opacity="0.322"/>
      <stop offset="1" stop-opacity="0"/>
    </linearGradient>
    <linearGradient id="linear-gradient-3" x1="23.472" y1="0.152" x2="18.891" y2="1.198" xlink:href="#linear-gradient-2"/>
    <linearGradient id="linear-gradient-4" x1="8.571" y1="0.599" x2="5.225" y2="0.372" xlink:href="#linear-gradient-2"/>
    <linearGradient id="linear-gradient-5" x1="3.601" y1="0.771" x2="7.442" y2="-0.01" xlink:href="#linear-gradient-2"/>
    <linearGradient id="linear-gradient-6" x1="27.14" y1="0.715" x2="24.32" y2="-0.18" xlink:href="#linear-gradient-2"/>
    <linearGradient id="linear-gradient-7" x1="6.716" y1="0.539" x2="8.912" y2="0.377" xlink:href="#linear-gradient-2"/>
    <linearGradient id="linear-gradient-8" x1="10.187" y1="1.306" x2="11.747" y2="-1.157" xlink:href="#linear-gradient-2"/>
    <linearGradient id="linear-gradient-9" x1="9.725" y1="0.581" x2="13.81" y2="0.329" xlink:href="#linear-gradient-2"/>
    <linearGradient id="linear-gradient-10" x1="0.623" y1="-0.201" x2="0.344" y2="1.69" gradientUnits="objectBoundingBox">
      <stop offset="0" stop-color="#053485"/>
      <stop offset="1" stop-color="#010a26"/>
    </linearGradient>
  </defs>
  <g id="background_info_sm" transform="translate(0.997 -413.317)">
    <path id="Path_54" data-name="Path 54" class="cls-1" d="M1796.411,2075.223c-4.116,39.886-17.687,77.065-65.306,57.477-90.7-37.31-128.194,37.31-146.334,65.544s-45.956,6.05-70.144-19.159-79.213,24.5-79.213,24.5v98.316h361Z" transform="translate(-1436.411 -1661.906)"/>
    <g id="Team_work_Monochromatic" data-name="Team work_Monochromatic" transform="translate(224.152 473.601)">
      <path id="Path_9" data-name="Path 9" class="cls-2" d="M83.4,154.289a24.136,24.136,0,0,0-11.326,14.376c-1.059,3.552-1.389,7.3-2.6,10.8-3.435,9.971-13.337,16.457-17.555,26.118a23.539,23.539,0,0,0-.781,17.179,20.131,20.131,0,0,0,11.944,12.152,35.219,35.219,0,0,0,10.639,1.489c6.732.215,13.517.239,20.145-.956,3.156-.57,6.267-1.414,9.453-1.782,6.164-.713,12.457.371,18.581-.623a42.811,42.811,0,0,0,12.169-4.31,35.225,35.225,0,0,0,8.145-5.273c6.327-5.8,8.67-15.213,6.971-23.628s-7.042-15.807-13.766-21.143c-2.956-2.347-6.177-4.334-9.276-6.488a103.731,103.731,0,0,1-11.353-9.132C106.262,155.161,95.259,147.924,83.4,154.289Z" transform="translate(-49.876 -151.854)"/>
      <path id="Path_10" data-name="Path 10" class="cls-3" d="M273.961,909.492l-5.786.8a1.486,1.486,0,0,0-.778.264,1,1,0,0,0-.13,1.218,2.946,2.946,0,0,0,.938.917c-1.374.328-3.762.255-3.692,2.215a1.923,1.923,0,0,0,1.171,1.674,3.771,3.771,0,0,0,1.293.2c4.278.153,8.626.3,12.769-.776.79-.2,1.726-.652,1.727-1.467,0-.289-.127-.566-.142-.855-.092-1.85,3.863-.764,4.883-.705q3.394.2,6.788.283c4.621.123,9.248.116,13.869.051a24.666,24.666,0,0,1,4.372.184c1.137.187,2.24.539,3.356.823a28.753,28.753,0,0,0,11.249.578c1.7-.255,3.789-1.164,3.679-2.879-.094-1.471-1.767-2.235-3.191-2.617a49.165,49.165,0,0,0-6.417-1.273,95.665,95.665,0,0,0-11.539-.572c-8.371-.067-16.742-.072-25.114-.077C280.458,907.48,276.75,909.1,273.961,909.492Z" transform="translate(-246.302 -843.369)"/>
      <path id="Path_11" data-name="Path 11" class="cls-4" d="M460.13,591.459h23.364L479.359,576.6H463.617Z" transform="translate(-421.091 -527.679)"/>
      <path id="Path_12" data-name="Path 12" class="cls-5" d="M460.13,591.459h23.364L479.359,576.6H463.617Z" transform="translate(-421.091 -527.679)"/>
      <path id="Path_13" data-name="Path 13" class="cls-4" d="M316.659,215.293V253.6a4.193,4.193,0,0,1-4.195,4.194h-60.54a4.193,4.193,0,0,1-4.194-4.195V215.293a4.2,4.2,0,0,1,4.194-4.193h60.541a4.2,4.2,0,0,1,4.194,4.192Z" transform="translate(-230.943 -206.073)"/>
      <path id="Path_14" data-name="Path 14" class="cls-6" d="M294.4,650.35a.319.319,0,0,1-.2.339.967.967,0,0,1-.424.06l-.61-.006a.227.227,0,0,0-.267.285l-.062,2.613a3.706,3.706,0,0,0,.241,1.75c.132.265.325.495.464.756a1.028,1.028,0,0,1,.112.848q-1.554.065-3.109,0a.763.763,0,0,1-.538-.164.749.749,0,0,1-.146-.278,22.166,22.166,0,0,1-.753-2.642,10.343,10.343,0,0,1-.289-2.6,5.029,5.029,0,0,1,.713-2.493,1.619,1.619,0,0,1,.424-.483,1.835,1.835,0,0,1,.594-.24,17.11,17.11,0,0,1,3.154-.412,1.658,1.658,0,0,1,1.035.155,1.111,1.111,0,0,1,.431.993,3.255,3.255,0,0,1-.316,1.08" transform="translate(-268.546 -605.607)"/>
      <path id="Path_15" data-name="Path 15" class="cls-7" d="M908.294,657.189q-.978-3.24-2.233-6.389a.429.429,0,0,0-.16-.232.436.436,0,0,0-.282-.023l-1.82.259a8.448,8.448,0,0,0,.9,2.921,24.438,24.438,0,0,1,1.54,5.213,1.291,1.291,0,0,0,.165.509,1.176,1.176,0,0,0,.764.4c.891.187,1.472.458,1.622-.448A5.75,5.75,0,0,0,908.294,657.189Z" transform="translate(-831.349 -608.221)"/>
      <path id="Path_16" data-name="Path 16" class="cls-8" d="M791.114,665.166l-1.951-.022a.55.55,0,0,0-.385.093c-.1.092-.116.214-.188.313a.789.789,0,0,1-.746.189,17.132,17.132,0,0,1-2.774-.531l.349-2.385a20.994,20.994,0,0,0,5.059.5l.09-2.871-2.58-.023a.519.519,0,0,1-.315-.07.512.512,0,0,1-.142-.413,7.122,7.122,0,0,1,.059-1.049.312.312,0,0,1,.092-.22.323.323,0,0,1,.242-.031,31.265,31.265,0,0,0,5.93.216,30.38,30.38,0,0,0,1.586,8.609,31.555,31.555,0,0,1-3.309-.163c-.482-.109-.459-.161-.614-.679A12.643,12.643,0,0,0,791.114,665.166Z" transform="translate(-722.693 -615.637)"/>
      <path id="Path_17" data-name="Path 17" class="cls-9" d="M316.659,215.293v33.6H247.73v-33.6a4.2,4.2,0,0,1,4.194-4.193h60.541a4.2,4.2,0,0,1,4.194,4.192Z" transform="translate(-230.943 -206.073)"/>
      <path id="Path_18" data-name="Path 18" class="cls-4" d="M300.572,621.883a6.939,6.939,0,0,0,2.6,1.29.429.429,0,0,1,.315.149.4.4,0,0,1,.014.287,11.643,11.643,0,0,1-.608,2,10.049,10.049,0,0,1-3.944-1.391,1.428,1.428,0,0,1-.5-.438,1.569,1.569,0,0,1-.164-.684,3.593,3.593,0,0,1,.241-2.145c.3-.448.47-.154.872.123Z" transform="translate(-277.16 -580.938)"/>
      <path id="Path_19" data-name="Path 19" class="cls-10" d="M294.812,620.613a6.938,6.938,0,0,0,2.6,1.291c.118.021.255.046.315.149a.4.4,0,0,1,.014.287,11.632,11.632,0,0,1-.607,2,10.041,10.041,0,0,1-3.945-1.391,1.425,1.425,0,0,1-.5-.437,1.56,1.56,0,0,1-.164-.684,3.592,3.592,0,0,1,.241-2.145c.3-.448.47-.154.873.123Z" transform="translate(-271.888 -579.776)"/>
      <path id="Path_20" data-name="Path 20" class="cls-11" d="M326.85,226.6v31.674H260V226.6a4.046,4.046,0,0,1,4.067-4.023h58.718A4.042,4.042,0,0,1,326.85,226.6Z" transform="translate(-242.172 -216.579)"/>
      <path id="Path_21" data-name="Path 21" class="cls-12" d="M326.85,226.6v31.674H260V226.6a4.046,4.046,0,0,1,4.067-4.023h58.718A4.042,4.042,0,0,1,326.85,226.6Z" transform="translate(-242.172 -216.579)"/>
      <path id="Path_22" data-name="Path 22" class="cls-4" d="M769.513,351.517a5.244,5.244,0,0,1,.481-2.206L766.7,347.52a9.032,9.032,0,0,0,5.887,12.753l.666-3.693A5.3,5.3,0,0,1,769.513,351.517Z" transform="translate(-705.032 -330.919)"/>
      <path id="Path_23" data-name="Path 23" class="cls-13" d="M856.118,430.021a9.04,9.04,0,0,1-9.969,4.115l.666-3.695a5.2,5.2,0,0,0,1.554.233,5.293,5.293,0,0,0,4.463-2.445Z" transform="translate(-778.59 -404.78)"/>
      <path id="Path_24" data-name="Path 24" class="cls-11" d="M793.9,297.2a8.976,8.976,0,0,1-1.285,4.643l-3.29-1.791A5.3,5.3,0,1,0,780.049,295l-3.289-1.791a9.036,9.036,0,0,1,17.139,4Z" transform="translate(-715.088 -276.602)"/>
      <rect id="Rectangle_3" data-name="Rectangle 3" class="cls-12" width="22.017" height="20.227" transform="translate(23.607 10.148)"/>
      <path id="Path_25" data-name="Path 25" class="cls-11" d="M820.223,952.324a6.063,6.063,0,0,1-3.537-.509.494.494,0,0,1-.182-.165.339.339,0,0,1,.032-.346.747.747,0,0,1,.28-.23,3.973,3.973,0,0,1,1.229-.355c.521-.091,1.042-.182,1.569-.235.339-.033.911-.17,1.188.1.216.216.17.594.134.87C820.865,951.946,820.77,952.292,820.223,952.324Z" transform="translate(-751.429 -882.667)"/>
      <path id="Path_26" data-name="Path 26" class="cls-11" d="M916.16,937.73a6.046,6.046,0,0,1-3.2,1.6.493.493,0,0,1-.244-.031.339.339,0,0,1-.17-.3.756.756,0,0,1,.1-.349,4.007,4.007,0,0,1,.809-.992c.377-.371.753-.743,1.156-1.086.255-.219.653-.658,1.032-.594.3.054.48.4.606.64C916.473,937.055,916.591,937.392,916.16,937.73Z" transform="translate(-839.355 -869.437)"/>
      <path id="Path_27" data-name="Path 27" class="cls-9" d="M843.656,768.085q.008.6.019,1.2a11.453,11.453,0,0,0,2.2.061.216.216,0,0,0,.255-.244c.156-1.99-.1-4,.133-5.985a4.279,4.279,0,0,1,.284-1.211,5.6,5.6,0,0,1,.679-1.072,25.021,25.021,0,0,0,2.036-3.328,7.8,7.8,0,0,0,.755-3.788c-.017-1.306-.685-1.872-1.959-1.532a1.059,1.059,0,0,0-.84.631,31.266,31.266,0,0,0-2.042,3.894C843.708,760.278,843.608,764.217,843.656,768.085Z" transform="translate(-776.3 -701.165)"/>
      <path id="Path_28" data-name="Path 28" class="cls-14" d="M843.656,768.085q.008.6.019,1.2a11.453,11.453,0,0,0,2.2.061.216.216,0,0,0,.255-.244c.156-1.99-.1-4,.133-5.985a4.279,4.279,0,0,1,.284-1.211,5.6,5.6,0,0,1,.679-1.072,25.021,25.021,0,0,0,2.036-3.328,7.8,7.8,0,0,0,.755-3.788c-.017-1.306-.685-1.872-1.959-1.532a1.059,1.059,0,0,0-.84.631,31.266,31.266,0,0,0-2.042,3.894C843.708,760.278,843.608,764.217,843.656,768.085Z" transform="translate(-776.3 -701.165)"/>
      <path id="Path_29" data-name="Path 29" class="cls-15" d="M764.608,604.58a10.79,10.79,0,0,1-6.251-4.683,1.388,1.388,0,0,1-.27-1.2.208.208,0,0,1,.094-.118c.073-.033.155.013.223.056l3.369,2.206a10.033,10.033,0,0,0,2.97,1.5,3.836,3.836,0,0,1,.339,1.037A1.917,1.917,0,0,1,764.608,604.58Z" transform="translate(-697.947 -560.665)"/>
      <rect id="Rectangle_4" data-name="Rectangle 4" class="cls-11" width="39.499" height="31.829" transform="translate(65.425 49.517) rotate(180)"/>
      <path id="Path_30" data-name="Path 30" class="cls-16" d="M753.1,712.277a1.38,1.38,0,0,0,.61.232,16.761,16.761,0,0,0,4.4.284.691.691,0,0,0,.406-.116.65.65,0,0,0,.182-.469,4.38,4.38,0,0,0-.091-1.347c-.013-.057-3.572-.052-3.911,0C754.192,710.937,752.264,711.6,753.1,712.277Z" transform="translate(-693.247 -663.394)"/>
      <path id="Path_31" data-name="Path 31" class="cls-16" d="M358.123,553.9a2.5,2.5,0,0,1,.015.863,3.01,3.01,0,0,1-.589,1.094,18.431,18.431,0,0,0-2.522,4.943,10.862,10.862,0,0,1-.249-2.954,5.049,5.049,0,0,1,.081-1.044,6.549,6.549,0,0,1,.546-1.358,10.224,10.224,0,0,0,.714-2.168c.11-.527.3-1.862,1.128-1.772C357.946,551.577,358.047,553.371,358.123,553.9Z" transform="translate(-328.908 -517.591)"/>
      <path id="Path_32" data-name="Path 32" class="cls-9" d="M886.136,744.734a18.6,18.6,0,0,1-1.34,3.635c-.47.986-1.557,2.254-1.552,3.372.008,2.007,2.121,4.694,3.416,6.072a11.462,11.462,0,0,1-2.186,1.128.845.845,0,0,1-.535.076.882.882,0,0,1-.449-.459l-1.414-2.46a9.917,9.917,0,0,1-1.664-4.386,11.071,11.071,0,0,1,.116-1.707,33.416,33.416,0,0,1,.3-3.752c.266-1.071.613-2.133.863-3.224a2.384,2.384,0,0,1,.733-1.469,1.949,1.949,0,0,1,.636-.279c1.1-.31,2.3-.35,2.9.793A3.915,3.915,0,0,1,886.136,744.734Z" transform="translate(-809.941 -691.1)"/>
      <path id="Path_33" data-name="Path 33" class="cls-4" d="M828.785,636.92c-.6.218-.039,1.621.122,2.036a.477.477,0,0,0,.175.255.5.5,0,0,0,.3.036q1.358-.126,2.7-.322a1.424,1.424,0,0,0,.571-.17.969.969,0,0,0,.4-.641c.085-.424.124-1.429-.241-1.75-.265-.233-.792-.068-1.138-.032A12.159,12.159,0,0,0,828.785,636.92Z" transform="translate(-762.451 -595.144)"/>
      <path id="Path_34" data-name="Path 34" class="cls-17" d="M828.785,636.92c-.6.218-.039,1.621.122,2.036a.477.477,0,0,0,.175.255.5.5,0,0,0,.3.036q1.358-.126,2.7-.322a1.424,1.424,0,0,0,.571-.17.969.969,0,0,0,.4-.641c.085-.424.124-1.429-.241-1.75-.265-.233-.792-.068-1.138-.032A12.159,12.159,0,0,0,828.785,636.92Z" transform="translate(-762.451 -595.144)"/>
      <path id="Path_35" data-name="Path 35" class="cls-15" d="M847.829,567.258c-.107.178-.323.283-.394.478-.085.236.08.479.164.715.117.329.085.7.2,1.028a.391.391,0,0,0,.116.186.428.428,0,0,0,.175.069,2.523,2.523,0,0,0,.745.043.223.223,0,0,1,.145.019.2.2,0,0,1,.064.126,3.987,3.987,0,0,1-.03,1.895c-.053.2-.113.453.038.6a.421.421,0,0,0,.193.1,1.368,1.368,0,0,0,1.245-.6,5.536,5.536,0,0,0,.731-1.074,1.049,1.049,0,0,0,.126-.344,1.222,1.222,0,0,0-.065-.467,7.916,7.916,0,0,1-.244-1.576,6.083,6.083,0,0,0-.247-2.022,1.061,1.061,0,0,0-.413-.531,1.338,1.338,0,0,0-.734-.118,1.921,1.921,0,0,0-1.377.45C848.164,566.336,847.96,567.036,847.829,567.258Z" transform="translate(-779.745 -530.659)"/>
      <path id="Path_36" data-name="Path 36" class="cls-9" d="M851.556,552.466c-.2-.037-.354.233-.275.424a.622.622,0,0,0,.495.322,4.377,4.377,0,0,1,.608.089.5.5,0,0,1,.378.434.456.456,0,0,1,.509.339,1.394,1.394,0,0,1-.024.673c.062.067.178.021.238-.048s.1-.163.177-.208c.17-.1.382.122.358.318a.878.878,0,0,1-.324.482.31.31,0,0,0-.085.109c-.06.165.16.283.331.32a.934.934,0,0,0,.044.378.319.319,0,0,0,.29.213c.115-.006.206-.092.311-.137s.267-.016.277.1c.177-.37-.011-.714.065-1.066.07-.322.353-.2.547-.418.108-.12.1-.3.148-.454.064-.2.227-.352.271-.553.075-.339-.208-.646-.466-.881a.322.322,0,0,0-.085-.372.723.723,0,0,0-.371-.161.2.2,0,0,1-.1-.04c-.044-.042-.035-.114-.03-.175.085-1.031-1.6-.745-2.22-.692a1.6,1.6,0,0,0-.723.245C851.839,551.754,851.327,552.424,851.556,552.466Z" transform="translate(-783.266 -517.485)"/>
      <path id="Path_37" data-name="Path 37" class="cls-4" d="M860.806,621.83l-.042.009a3.867,3.867,0,0,0-2.51,1.96,8.025,8.025,0,0,0-.345,3.875c.186.824.685,1.543.9,2.346a18.733,18.733,0,0,0,.635,2.63,1.954,1.954,0,0,0,.722.984,2.172,2.172,0,0,0,1,.218c1.01.053,2.427.4,3.265-.3a2.719,2.719,0,0,0,.856-2.256,8.029,8.029,0,0,0-.646-2.409l-1.405-3.665C862.887,624.343,862.065,621.581,860.806,621.83Z" transform="translate(-789.248 -581.941)"/>
      <path id="Path_38" data-name="Path 38" class="cls-18" d="M867.72,680.746a.8.8,0,0,0-.105.749,6.681,6.681,0,0,1,.183,1.822.424.424,0,0,1-.1.3.442.442,0,0,1-.275.085,2.011,2.011,0,0,1-1.042-.1,1.826,1.826,0,0,1-.764-.966,18.771,18.771,0,0,1-1.018-3.442,1.479,1.479,0,0,1-.054-.583,1.146,1.146,0,0,1,.526-.7c.248-.169.524-.293.764-.475.465-.357.809-1,1.442-1.085a.939.939,0,0,1,.982.7A5.262,5.262,0,0,1,867.72,680.746Z" transform="translate(-795.421 -631.843)"/>
      <path id="Path_39" data-name="Path 39" class="cls-4" d="M867.2,645.088a39.5,39.5,0,0,1-1.541,3.737c-.254.255,2.474,1.8,2.474,1.8s1.782-3.387,1.7-4.855S868.2,643.7,867.2,645.088Z" transform="translate(-796.43 -602.524)"/>
      <path id="Path_40" data-name="Path 40" class="cls-15" d="M776.327,699.888a1.3,1.3,0,0,1-1.47,1.1l-2.326-.033c-1.072-.014-2.145-.051-3.216-.043a3.2,3.2,0,0,0-.764.2,3.117,3.117,0,0,1-2.807-.764,1.009,1.009,0,0,1-.363-1.074.245.245,0,0,1,.107-.123.3.3,0,0,1,.134-.017,5.242,5.242,0,0,0,1.93-.032.515.515,0,0,1-.079-.273c.009-.095.1-.19.191-.17a.285.285,0,0,1,.125.091,1.522,1.522,0,0,0,1.258.5c1.764-.085,3.5-.459,5.268-.539a3.052,3.052,0,0,1,1.225.129A1.431,1.431,0,0,1,776.327,699.888Z" transform="translate(-704.623 -652.264)"/>
      <path id="Path_41" data-name="Path 41" class="cls-15" d="M352.151,957.564a1.256,1.256,0,0,1,.4.1.366.366,0,0,1,.212.329.406.406,0,0,1-.243.3c-.121.061-.255.092-.375.154a2.173,2.173,0,0,1-.327.182.923.923,0,0,1-.587-.085,7.734,7.734,0,0,0-2.67-.442.979.979,0,0,1-.264-.018.8.8,0,0,1-.482-.594,3.83,3.83,0,0,1,.017-1.713.383.383,0,0,1,.064-.177.334.334,0,0,1,.143-.09c.9-.334,1.273.553,1.859,1.028A4.8,4.8,0,0,0,352.151,957.564Z" transform="translate(-322.453 -887.263)"/>
      <path id="Path_42" data-name="Path 42" class="cls-4" d="M344.982,971.182c.059.009.118.016.177.022a7.4,7.4,0,0,0,1.2.032.424.424,0,0,0,.22-.053.362.362,0,0,0,.132-.291,1.646,1.646,0,0,1,.022-.33.08.08,0,0,1,.093-.072,1.925,1.925,0,0,1,.882.246,3.026,3.026,0,0,1,1.366,1.11.268.268,0,0,1,.048.143.247.247,0,0,1-.047.124c-.361.563-1.263.424-1.814.307-.615-.13-1.206-.362-1.828-.46a5.363,5.363,0,0,1-2.012-.42.657.657,0,0,1-.238-.221.957.957,0,0,1,.242-.966.14.14,0,0,1,.21-.023c.283.175.467.479.75.656a1.555,1.555,0,0,0,.595.2Z" transform="translate(-318.245 -900.854)"/>
      <path id="Path_43" data-name="Path 43" class="cls-9" d="M269.9,711.63s-2.785,1.593-2,4.51c.679,2.545,2.637,4.13,3.888,6.306.693,1.207.567,3.176.86,4.582a33.258,33.258,0,0,0,1.483,5.055c.126.331.332.715.686.726.17.006.326-.08.494-.085a2.56,2.56,0,0,0,.473.016c.4-.092.4-.666.311-1.072a33.73,33.73,0,0,1-.8-5.944c-.068-1.541.35-3.177-.085-4.672-.349-1.188-2.416-7.526-2.416-7.526Z" transform="translate(-249.267 -664.136)"/>
      <path id="Path_44" data-name="Path 44" class="cls-15" d="M285.64,966.11a1.294,1.294,0,0,1,.361.2.366.366,0,0,1,.124.372.4.4,0,0,1-.311.232c-.132.03-.27.025-.4.057a2.181,2.181,0,0,1-.361.1.948.948,0,0,1-.548-.226,7.733,7.733,0,0,0-2.476-1.091.981.981,0,0,1-.255-.085.785.785,0,0,1-.32-.694,3.8,3.8,0,0,1,.442-1.654.374.374,0,0,1,.107-.156.325.325,0,0,1,.161-.052c.95-.1,1.1.848,1.545,1.458A4.8,4.8,0,0,0,285.64,966.11Z" transform="translate(-261.804 -894.271)"/>
      <path id="Path_45" data-name="Path 45" class="cls-9" d="M265.743,734.08a3.554,3.554,0,0,0-1.951.955c-1.167.989-1.084,3.012-.691,4.49.207.779,1.442,3.224,1.624,3.913.344,1.315-.344,2.944-.4,4.273a33.382,33.382,0,0,0,.179,5.265c.041.352.144.775.484.874.161.048.339,0,.5.037a2.5,2.5,0,0,0,.454.133c.416.011.556-.545.568-.96a33.651,33.651,0,0,1,.707-5.956c.317-1.509,1.129-2.991,1.078-4.546-.042-1.273-.08-2.537-.119-3.805a15.225,15.225,0,0,0-.277-4.195.79.79,0,0,0-.249-.424.773.773,0,0,0-.406-.108,8.1,8.1,0,0,0-1.258.028C265.906,734.062,265.821,734.07,265.743,734.08Z" transform="translate(-244.769 -684.619)"/>
      <path id="Path_46" data-name="Path 46" class="cls-15" d="M282.678,550.748c.106.179.323.283.393.479.085.236-.079.479-.164.714-.117.329-.08.7-.194,1.027a.389.389,0,0,1-.117.187.435.435,0,0,1-.175.068,2.523,2.523,0,0,1-.744.044.211.211,0,0,0-.145.02.2.2,0,0,0-.065.126,3.975,3.975,0,0,0,.029,1.895c.054.2.113.453-.038.6a.406.406,0,0,1-.192.1,1.364,1.364,0,0,1-1.246-.6,5.521,5.521,0,0,1-.73-1.073,1.067,1.067,0,0,1-.126-.344,1.264,1.264,0,0,1,.065-.468,7.849,7.849,0,0,0,.244-1.576,6.061,6.061,0,0,1,.248-2.022,1.065,1.065,0,0,1,.412-.531,1.341,1.341,0,0,1,.735-.118,1.918,1.918,0,0,1,1.376.451C282.342,549.826,282.546,550.527,282.678,550.748Z" transform="translate(-259.708 -515.55)"/>
      <path id="Path_47" data-name="Path 47" class="cls-4" d="M253.928,584.617c.187-.014.375-.014.562-.015a4.788,4.788,0,0,1,1.018.073,1.643,1.643,0,0,1,.885.475c.144.161.243.357.38.525a.722.722,0,0,0,.546.307,2.01,2.01,0,0,0,.43-.112c.207-.048.424-.011.63-.055a1.3,1.3,0,0,0,.5-.326q.535-.424,1.033-.9a24.147,24.147,0,0,0,1.816-2.043,3.12,3.12,0,0,1,.692.69.575.575,0,0,1,.13.288.613.613,0,0,1-.076.286,16.616,16.616,0,0,1-2.086,3.427,8.377,8.377,0,0,1-1.5,1.509,3.292,3.292,0,0,0-1.03.943c-.509.943-.006,2.382,0,3.387,0,.344-.143.625-.142.976,0,.611.53,1.153.339,1.782-.159.52-.757.743-1.279.894l-2.052.594a1.86,1.86,0,0,1-1.381.031,1.834,1.834,0,0,1-.679-1.55,15.034,15.034,0,0,0-.7-4.751,4.365,4.365,0,0,1-.368-2.584,9.8,9.8,0,0,1,.463-2.262c.114-.315.263-.621.406-.922a1.23,1.23,0,0,1,.708-.52A2.57,2.57,0,0,1,253.928,584.617Z" transform="translate(-234.437 -546.008)"/>
      <path id="Path_48" data-name="Path 48" class="cls-19" d="M226.823,539.653a1.392,1.392,0,0,1-.451.872c-.24.227-.54.381-.789.594a.982.982,0,0,0-.4.86.447.447,0,0,0-.54.17.357.357,0,0,0,.058.374.449.449,0,0,0,.356.148,1.41,1.41,0,0,0-.636.514,4.153,4.153,0,0,0-.39,1,4.344,4.344,0,0,1-.394.607,3.163,3.163,0,0,0-.263,1.235,3.251,3.251,0,0,1-.776,1.813,2.073,2.073,0,0,1-1.8.679,1.534,1.534,0,0,1-1.281-1.343.818.818,0,0,1-.6-.566,2.007,2.007,0,0,1-.048-.859,2.128,2.128,0,0,1,.255-.893,3.167,3.167,0,0,1,1.358-.933,5.214,5.214,0,0,0,.64-.389.734.734,0,0,0,.232-.227.959.959,0,0,0-.013-.669,1.351,1.351,0,0,1,.141-1.067,1.8,1.8,0,0,1,.832-.547l.8-.333a.447.447,0,0,0,.18-.111.424.424,0,0,0,.071-.165,7.768,7.768,0,0,1,.314-1.16,1.68,1.68,0,0,1,1.93-.882C226.263,538.5,226.889,538.913,226.823,539.653Z" transform="translate(-204.509 -505.551)"/>
      <path id="Path_49" data-name="Path 49" class="cls-4" d="M264.4,621a39.382,39.382,0,0,0,4.011.5c.346-.1.339,3.042.339,3.042s-3.826-.115-5.062-.911S262.7,621.2,264.4,621Z" transform="translate(-244.837 -581.195)"/>
      <path id="Path_50" data-name="Path 50" class="cls-4" d="M277.541,981.957c.053.016.106.03.159.043a7.03,7.03,0,0,0,1.1.181.413.413,0,0,0,.209-.021.339.339,0,0,0,.159-.255,1.494,1.494,0,0,1,.061-.3.092.092,0,0,1,.036-.048.1.1,0,0,1,.058-.007,1.774,1.774,0,0,1,.779.339,2.816,2.816,0,0,1,1.116,1.188.261.261,0,0,1,.026.137.233.233,0,0,1-.059.109c-.4.471-1.212.231-1.7.053-.548-.2-1.062-.484-1.621-.652a4.942,4.942,0,0,1-1.8-.638.6.6,0,0,1-.191-.233.892.892,0,0,1,.339-.857.126.126,0,0,1,.193.006c.238.2.369.5.607.7A1.426,1.426,0,0,0,277.541,981.957Z" transform="translate(-256.674 -910.609)"/>
      <path id="Path_51" data-name="Path 51" class="cls-4" d="M382.29,410.76h34.326v23.891H382.29Zm34.023.306H382.6v23.277h33.712Z" transform="translate(-354.086 -388.793)"/>
      <path id="Path_52" data-name="Path 52" class="cls-15" d="M372.184,544.363a1.775,1.775,0,0,1,.245-1.109l.175.72a6.167,6.167,0,0,1,.966-1.884,2.717,2.717,0,0,1-.2,1.188A9.49,9.49,0,0,1,374,542.2c.146.411-.226.82-.273,1.253a2.164,2.164,0,0,1,.54-.565.448.448,0,0,1-.061.393l-.388.759a1.854,1.854,0,0,1,.369-.3c.12.294-.121.594-.26.881-.1.211-.152.445-.255.658a1.541,1.541,0,0,1-.96.816c-.149-.262-.47-.283-.519-.573A7.5,7.5,0,0,1,372.184,544.363Z" transform="translate(-344.817 -508.98)"/>
      <rect id="Rectangle_5" data-name="Rectangle 5" class="cls-4" width="2.404" height="15.917" transform="translate(30.88 29.633)"/>
      <rect id="Rectangle_6" data-name="Rectangle 6" class="cls-4" width="2.404" height="19.46" transform="translate(36.233 26.09)"/>
      <rect id="Rectangle_7" data-name="Rectangle 7" class="cls-4" width="2.404" height="12.748" transform="translate(41.759 32.801)"/>
      <rect id="Rectangle_8" data-name="Rectangle 8" class="cls-4" width="2.404" height="19.46" transform="translate(47.284 26.09)"/>
      <rect id="Rectangle_9" data-name="Rectangle 9" class="cls-4" width="2.404" height="16.479" transform="translate(52.81 29.072)"/>
      <rect id="Rectangle_10" data-name="Rectangle 10" class="cls-4" width="2.404" height="21.627" transform="translate(58.335 23.923)"/>
      <line id="Line_3" data-name="Line 3" class="cls-20" x1="9.276" y1="5.057" transform="translate(64.962 18.393)"/>
    </g>
    <circle id="Ellipse_14" data-name="Ellipse 14" class="cls-21 shape" cx="20.268" cy="20.268" r="20.268" transform="translate(58.057 497.175)"/>
    <circle id="Ellipse_15" data-name="Ellipse 15" class="cls-21 shape" cx="14.963" cy="14.963" r="14.963" transform="translate(318.769 563.574)"/>
    <circle id="Ellipse_16" data-name="Ellipse 16" class="cls-21 shape" cx="10" cy="10" r="10" transform="translate(27 612)"/>
    <circle id="Ellipse_17" data-name="Ellipse 17" class="cls-21 shape" cx="10" cy="10" r="10" transform="translate(121 496)"/>
    <circle id="Ellipse_18" data-name="Ellipse 18" class="cls-21 shape" cx="14" cy="14" r="14" transform="translate(296 430)"/>
    <circle id="Ellipse_19" data-name="Ellipse 19" class="cls-21 shape" cx="24" cy="24" r="24" transform="translate(141 430)"/>
  </g>
</svg>
