<svg xmlns="http://www.w3.org/2000/svg" xmlns:xlink="http://www.w3.org/1999/xlink" width="1463.618" height="635.87" viewBox="0 0 1463.618 635.87" preserveAspectRatio="none">
  <defs>
    <style>

    .shape {
        cy: 60;
        animation: moveCircle 4000ms ease-in-out both infinite;
      }

      @keyframes moveCircle {
        50% {
          cy: 20;
        }
      }

      .shape:nth-child(2){
        animation-delay: 100ms;
      }

      .shape:nth-child(3){
        animation-delay: 300ms;
      }

      .shape:nth-child(4){
        animation-delay: 500ms;
      }
      .shape:nth-child(5){
        animation-delay: 900ms;
      }

      .shape:nth-child(6){
        animation-delay: 800ms;
      }

    
      .cls-1 {
        fill: url(#linear-gradient);
      }

      .cls-2 {
        fill: #fff;
      }

      .cls-3 {
        fill: url(#linear-gradient-2);
      }

      .cls-13, .cls-4 {
        opacity: 0.18;
      }

      .cls-13, .cls-14, .cls-17, .cls-5, .cls-6 {
        fill: #68e1fd;
      }

      .cls-5 {
        opacity: 0.44;
      }

      .cls-7 {
        fill: url(#linear-gradient-8);
      }

      .cls-8 {
        fill: url(#linear-gradient-9);
      }

      .cls-9 {
        fill: url(#linear-gradient-10);
      }

      .cls-10 {
        fill: url(#linear-gradient-11);
      }

      .cls-11 {
        fill: #473f47;
      }

      .cls-12 {
        fill: url(#linear-gradient-12);
      }

      .cls-14 {
        opacity: 0.5;
      }

      .cls-15 {
        fill: url(#linear-gradient-13);
      }

      .cls-16 {
        fill: #ffbbab;
      }

      .cls-17 {
        opacity: 0.16;
      }

      .cls-18 {
        fill: url(#linear-gradient-14);
      }

      .cls-19 {
        fill: url(#linear-gradient-15);
      }

      .cls-20 {
        fill: #fc682d;
      }

      .cls-21 {
        fill: none;
      }

      .cls-22 {
        filter: url(#Ellipse_9);
      }
    </style>
    <linearGradient id="linear-gradient" x1="-0.027" y1="1.457" x2="0.991" gradientUnits="objectBoundingBox">
      <stop offset="0" stop-color="#053485"/>
      <stop offset="1" stop-color="#57658f"/>
    </linearGradient>
    <linearGradient id="linear-gradient-2" x1="0.623" y1="-0.201" x2="0.344" y2="1.69" gradientUnits="objectBoundingBox">
      <stop offset="0" stop-color="#053485"/>
      <stop offset="1" stop-color="#010a26"/>
    </linearGradient>
    <filter id="Ellipse_9" x="618.074" y="437.568" width="108.437" height="108.437" filterUnits="userSpaceOnUse">
      <feOffset dy="3" input="SourceAlpha"/>
      <feGaussianBlur stdDeviation="3" result="blur"/>
      <feFlood flood-opacity="0.161"/>
      <feComposite operator="in" in2="blur"/>
      <feComposite in="SourceGraphic"/>
    </filter>
    <linearGradient id="linear-gradient-8" x1="4.142" y1="0.646" x2="4.25" y2="2.924" gradientUnits="objectBoundingBox">
      <stop offset="0.01"/>
      <stop offset="0.08" stop-opacity="0.69"/>
      <stop offset="0.21" stop-opacity="0.322"/>
      <stop offset="1" stop-opacity="0"/>
    </linearGradient>
    <linearGradient id="linear-gradient-9" x1="23.472" y1="0.152" x2="18.891" y2="1.198" xlink:href="#linear-gradient-8"/>
    <linearGradient id="linear-gradient-10" x1="8.571" y1="0.599" x2="5.225" y2="0.372" xlink:href="#linear-gradient-8"/>
    <linearGradient id="linear-gradient-11" x1="3.601" y1="0.771" x2="7.442" y2="-0.01" xlink:href="#linear-gradient-8"/>
    <linearGradient id="linear-gradient-12" x1="27.14" y1="0.715" x2="24.32" y2="-0.18" xlink:href="#linear-gradient-8"/>
    <linearGradient id="linear-gradient-13" x1="6.716" y1="0.539" x2="8.912" y2="0.377" xlink:href="#linear-gradient-8"/>
    <linearGradient id="linear-gradient-14" x1="10.187" y1="1.306" x2="11.747" y2="-1.157" xlink:href="#linear-gradient-8"/>
    <linearGradient id="linear-gradient-15" x1="9.725" y1="0.581" x2="13.81" y2="0.329" xlink:href="#linear-gradient-8"/>
  </defs>
  <g id="background_info_lg" transform="translate(3.006 -76.366)">
    <g id="Group_14" data-name="Group 14" transform="translate(-3.006 76.366)">
      <g id="Group_12" data-name="Group 12">
        <g id="Group_8" data-name="Group 8" transform="translate(0 0.118)">
          <path id="Subtraction_2" data-name="Subtraction 2" class="cls-1" d="M0,635.751S231.058,358.994,375.469,444.789c105.9,80.26,275,88.9,397.932,13.838S712.427,228.918,892.139,223.383s8.077-169.309,67.32-210.336,168.342,30.607,237.547,0c51.35-22.711,170.322,21.984,175.037,0,1.566-7.3,90.558-11.83,90.558-11.83V635.751Z" transform="translate(0 0)"/>
        </g>
        <g id="Group_9" data-name="Group 9" transform="translate(1006.367)">
          <path id="Path_7" data-name="Path 7" class="cls-2" d="M886.178,858s23.249,161.3,222.812,119.866,234.439,84.933,234.439,84.933V858Z" transform="translate(-886.178 -858)"/>
        </g>
        <circle id="Ellipse_11" data-name="Ellipse 11" class="cls-3 shape" cx="41.023" cy="41.023" r="41.023" transform="translate(850.794 515.061)"/>
        <circle id="Ellipse_10" data-name="Ellipse 10" class="cls-3  shape" cx="62.681" cy="65.681" r="62.681" transform="translate(131.317 436.569)"/>
        <circle id="Ellipse_8" data-name="Ellipse 8" class="cls-3  shape" cx="43.316" cy="43.316" r="43.316" transform="translate(407.158 515.061)"/>
        <g class="cls-22" transform="matrix(1, 0, 0, 1, 0, 0)">
          <circle id="Ellipse_9-2" data-name="Ellipse 9" class="cls-3 shape" cx="30.218" cy="30.218" r="30.218" transform="translate(656.07 453.57)"/>
        </g>
        <circle id="Ellipse_11-2" data-name="Ellipse 11" class="cls-3 shape" cx="41.023" cy="41.023" r="41.023" transform="translate(1308.222 120.193)"/>
        <circle id="Ellipse_6" data-name="Ellipse 6" class="cls-3 shape" cx="62.681" cy="62.681" r="62.681" transform="translate(881.006 139.557)"/>
      </g>
      <g id="Team_work_Monochromatic" data-name="Team work_Monochromatic" transform="translate(985.202 176.798)">
        <path id="Path_9" data-name="Path 9" class="cls-4" d="M161.641,159.974c-18.386,9.875-31.794,27.932-37.759,47.928-3.53,11.843-4.63,24.326-8.656,36.02-11.453,33.242-44.463,54.866-58.527,87.073-7.855,17.936-9.2,38.845-2.605,57.274s21.359,34.008,39.821,40.514c11.314,3.986,23.477,4.582,35.468,4.964,22.442.716,45.063.8,67.16-3.188,10.522-1.9,20.892-4.715,31.514-5.94,20.55-2.376,41.53,1.236,61.946-2.076,14.217-2.308,27.695-7.92,40.571-14.369,9.668-4.848,19.172-10.268,27.155-17.58,21.093-19.348,28.906-50.717,23.24-78.771s-23.477-52.7-45.894-70.489c-9.855-7.824-20.592-14.449-30.925-21.63a345.816,345.816,0,0,1-37.85-30.444C237.86,162.879,201.176,138.753,161.641,159.974Z" transform="translate(-49.876 -151.854)"/>
        <path id="Path_10" data-name="Path 10" class="cls-5" d="M296.014,914.186l-19.288,2.682a4.955,4.955,0,0,0-2.594.88,3.34,3.34,0,0,0-.433,4.059,9.824,9.824,0,0,0,3.128,3.058c-4.582,1.092-12.542.849-12.31,7.385a6.413,6.413,0,0,0,3.9,5.581,12.576,12.576,0,0,0,4.311.659c14.262.509,28.758.99,42.571-2.588,2.633-.682,5.753-2.172,5.756-4.891,0-.964-.424-1.887-.472-2.851-.305-6.166,12.879-2.546,16.279-2.351q11.314.659,22.629.945c15.407.41,30.832.388,46.236.17a82.206,82.206,0,0,1,14.576.614c3.79.622,7.467,1.8,11.19,2.744a95.861,95.861,0,0,0,37.5,1.926c5.657-.849,12.633-3.881,12.265-9.6-.314-4.9-5.892-7.451-10.638-8.723a163.852,163.852,0,0,0-21.393-4.243c-12.729-1.652-25.613-1.8-38.469-1.906-27.907-.223-55.814-.24-83.727-.257C317.673,907.48,305.312,912.894,296.014,914.186Z" transform="translate(-203.8 -693.743)"/>
        <path id="Path_11" data-name="Path 11" class="cls-6" d="M460.13,626.137h77.891L524.237,576.6H471.756Z" transform="translate(-329.979 -413.503)"/>
        <path id="Path_12" data-name="Path 12" class="cls-7" d="M460.13,626.137h77.891L524.237,576.6H471.756Z" transform="translate(-329.979 -413.503)"/>
        <path id="Path_13" data-name="Path 13" class="cls-6" d="M477.529,225.079V352.8a13.98,13.98,0,0,1-13.985,13.982H261.712A13.98,13.98,0,0,1,247.73,352.8V225.079A13.985,13.985,0,0,1,261.712,211.1H463.547a13.984,13.984,0,0,1,13.982,13.976Z" transform="translate(-191.765 -194.342)"/>
        <path id="Path_14" data-name="Path 14" class="cls-8" d="M307.437,656.592a1.062,1.062,0,0,1-.662,1.132,3.228,3.228,0,0,1-1.414.2l-2.034-.02a.756.756,0,0,0-.891.95l-.206,8.712a12.356,12.356,0,0,0,.8,5.835c.438.883,1.083,1.649,1.547,2.52a3.429,3.429,0,0,1,.373,2.828q-5.182.215-10.364.014a2.544,2.544,0,0,1-1.793-.546,2.5,2.5,0,0,1-.487-.928,73.9,73.9,0,0,1-2.509-8.808,34.477,34.477,0,0,1-.965-8.667,16.768,16.768,0,0,1,2.376-8.31,5.4,5.4,0,0,1,1.414-1.61,6.117,6.117,0,0,1,1.98-.8,57.028,57.028,0,0,1,10.514-1.375,5.527,5.527,0,0,1,3.451.518,3.7,3.7,0,0,1,1.437,3.31,10.85,10.85,0,0,1-1.055,3.6" transform="translate(-221.231 -507.427)"/>
        <path id="Path_15" data-name="Path 15" class="cls-9" d="M918.783,672.727q-3.261-10.8-7.445-21.3a1.43,1.43,0,0,0-.532-.775,1.453,1.453,0,0,0-.939-.076l-6.067.863c.113,3.417,1.666,6.591,2.993,9.739a81.462,81.462,0,0,1,5.134,17.379,4.3,4.3,0,0,0,.549,1.7,3.919,3.919,0,0,0,2.546,1.327c2.97.622,4.908,1.527,5.408-1.493C920.794,677.932,919.414,674.758,918.783,672.727Z" transform="translate(-662.258 -509.475)"/>
        <path id="Path_16" data-name="Path 16" class="cls-10" d="M805.221,680.41l-6.506-.074a1.835,1.835,0,0,0-1.284.308c-.334.308-.388.713-.628,1.044a2.631,2.631,0,0,1-2.486.631,57.112,57.112,0,0,1-9.247-1.771l1.163-7.951a69.987,69.987,0,0,0,16.867,1.669l.3-9.572-8.6-.076a1.729,1.729,0,0,1-1.049-.235,1.707,1.707,0,0,1-.472-1.378,23.721,23.721,0,0,1,.2-3.5,1.04,1.04,0,0,1,.308-.733,1.077,1.077,0,0,1,.806-.1,104.264,104.264,0,0,0,19.769.721,101.278,101.278,0,0,0,5.287,28.7c-3.5-.379-7.637.218-11.032-.543-1.607-.362-1.53-.537-2.048-2.263C806.437,684.843,805.436,680.413,805.221,680.41Z" transform="translate(-577.112 -515.286)"/>
        <path id="Path_17" data-name="Path 17" class="cls-11" d="M477.529,225.079V337.092H247.73V225.079A13.985,13.985,0,0,1,261.712,211.1H463.547a13.984,13.984,0,0,1,13.982,13.976Z" transform="translate(-191.765 -194.342)"/>
        <path id="Path_18" data-name="Path 18" class="cls-6" d="M306.035,624.6c2.676,1.839,5.459,3.725,8.656,4.3a1.432,1.432,0,0,1,1.049.5,1.321,1.321,0,0,1,.045.956,38.81,38.81,0,0,1-2.028,6.659,33.5,33.5,0,0,1-13.15-4.636,4.76,4.76,0,0,1-1.669-1.46,5.23,5.23,0,0,1-.546-2.28c-.167-2.155-.487-5.239.8-7.151,1.007-1.493,1.567-.512,2.908.41Z" transform="translate(-227.981 -488.095)"/>
        <path id="Path_19" data-name="Path 19" class="cls-12" d="M300.275,623.33c2.676,1.839,5.459,3.725,8.656,4.3.393.071.849.153,1.049.5a1.322,1.322,0,0,1,.045.956A38.776,38.776,0,0,1,308,635.742a33.475,33.475,0,0,1-13.153-4.636,4.748,4.748,0,0,1-1.669-1.457,5.2,5.2,0,0,1-.546-2.28c-.167-2.158-.486-5.239.8-7.151,1.007-1.493,1.567-.512,2.911.41Z" transform="translate(-223.85 -487.184)"/>
        <path id="Path_20" data-name="Path 20" class="cls-2" d="M482.869,235.993v105.6H260v-105.6a13.49,13.49,0,0,1,13.56-13.413H469.317A13.474,13.474,0,0,1,482.869,235.993Z" transform="translate(-200.564 -202.574)"/>
        <path id="Path_21" data-name="Path 21" class="cls-13" d="M482.869,235.993v105.6H260v-105.6a13.49,13.49,0,0,1,13.56-13.413H469.317A13.474,13.474,0,0,1,482.869,235.993Z" transform="translate(-200.564 -202.574)"/>
        <path id="Path_22" data-name="Path 22" class="cls-6" d="M778.243,360.845a17.482,17.482,0,0,1,1.6-7.354L768.88,347.52a30.11,30.11,0,0,0,19.628,42.517l2.22-12.313A17.665,17.665,0,0,1,778.243,360.845Z" transform="translate(-563.273 -292.174)"/>
        <path id="Path_23" data-name="Path 23" class="cls-14" d="M879.383,434.2a30.139,30.139,0,0,1-33.233,13.719l2.22-12.319a17.348,17.348,0,0,0,5.182.778,17.647,17.647,0,0,0,14.878-8.152Z" transform="translate(-620.915 -350.053)"/>
        <path id="Path_24" data-name="Path 24" class="cls-2" d="M833.9,318.282a29.923,29.923,0,0,1-4.283,15.478l-10.969-5.971a17.653,17.653,0,1,0-30.925-16.856l-10.966-5.971a30.125,30.125,0,0,1,57.138,13.32Z" transform="translate(-571.153 -249.61)"/>
        <rect id="Rectangle_3" data-name="Rectangle 3" class="cls-13" width="73.402" height="67.434" transform="translate(78.702 33.832)"/>
        <path id="Path_25" data-name="Path 25" class="cls-2" d="M828.981,956.765c-4.031.235-8.347.4-11.792-1.7a1.649,1.649,0,0,1-.608-.549,1.131,1.131,0,0,1,.107-1.154,2.493,2.493,0,0,1,.933-.767,13.244,13.244,0,0,1,4.1-1.182c1.737-.3,3.474-.608,5.23-.784,1.131-.11,3.038-.566,3.96.342.721.719.566,1.98.447,2.9C831.123,955.506,830.806,956.658,828.981,956.765Z" transform="translate(-599.631 -724.537)"/>
        <path id="Path_26" data-name="Path 26" class="cls-2" d="M924.587,941.85c-3.179,2.489-6.633,5.092-10.661,5.321a1.641,1.641,0,0,1-.812-.1,1.131,1.131,0,0,1-.566-1.01,2.518,2.518,0,0,1,.328-1.162,13.354,13.354,0,0,1,2.7-3.307c1.256-1.236,2.512-2.478,3.852-3.621.849-.73,2.178-2.2,3.44-1.98,1,.181,1.6,1.318,2.02,2.133C925.631,939.6,926.024,940.724,924.587,941.85Z" transform="translate(-668.532 -714.17)"/>
        <path id="Path_27" data-name="Path 27" class="cls-11" d="M843.676,805.411q.026,2.011.062,4.011a38.18,38.18,0,0,0,7.323.2.721.721,0,0,0,.849-.812c.52-6.636-.331-13.34.444-19.953a14.264,14.264,0,0,1,.948-4.036,18.672,18.672,0,0,1,2.263-3.575,83.383,83.383,0,0,0,6.789-11.1,26.009,26.009,0,0,0,2.518-12.63c-.057-4.353-2.283-6.24-6.531-5.108a3.53,3.53,0,0,0-2.8,2.1,104.246,104.246,0,0,0-6.809,12.983C843.849,779.382,843.518,792.515,843.676,805.411Z" transform="translate(-619.12 -582.308)"/>
        <path id="Path_28" data-name="Path 28" class="cls-15" d="M843.676,805.411q.026,2.011.062,4.011a38.18,38.18,0,0,0,7.323.2.721.721,0,0,0,.849-.812c.52-6.636-.331-13.34.444-19.953a14.264,14.264,0,0,1,.948-4.036,18.672,18.672,0,0,1,2.263-3.575,83.383,83.383,0,0,0,6.789-11.1,26.009,26.009,0,0,0,2.518-12.63c-.057-4.353-2.283-6.24-6.531-5.108a3.53,3.53,0,0,0-2.8,2.1,104.246,104.246,0,0,0-6.809,12.983C843.849,779.382,843.518,792.515,843.676,805.411Z" transform="translate(-619.12 -582.308)"/>
        <path id="Path_29" data-name="Path 29" class="cls-16" d="M779.96,618.614A35.972,35.972,0,0,1,759.122,603c-.747-1.211-1.44-2.687-.9-4.005a.693.693,0,0,1,.314-.393c.243-.11.518.042.744.187l11.232,7.354c3.112,2.034,6.3,4.1,9.9,5,.39,1.279,1.086,2.119,1.131,3.457A6.392,6.392,0,0,1,779.96,618.614Z" transform="translate(-557.721 -472.209)"/>
        <rect id="Rectangle_4" data-name="Rectangle 4" class="cls-2" width="131.683" height="106.112" transform="translate(218.118 165.082) rotate(180)"/>
        <path id="Path_30" data-name="Path 30" class="cls-17" d="M753.592,715.679a4.6,4.6,0,0,0,2.034.772,55.869,55.869,0,0,0,14.655.948,2.3,2.3,0,0,0,1.355-.388,2.168,2.168,0,0,0,.608-1.564,14.608,14.608,0,0,0-.3-4.492c-.042-.19-11.908-.173-13.037,0C757.218,711.21,750.792,713.416,753.592,715.679Z" transform="translate(-554.038 -552.71)"/>
        <path id="Path_31" data-name="Path 31" class="cls-17" d="M365.931,559.5a8.335,8.335,0,0,1,.051,2.877,10.034,10.034,0,0,1-1.963,3.646,61.45,61.45,0,0,0-8.407,16.479,36.214,36.214,0,0,1-.829-9.849,16.839,16.839,0,0,1,.269-3.479,21.835,21.835,0,0,1,1.822-4.526,34.088,34.088,0,0,0,2.382-7.227c.368-1.757.993-6.209,3.759-5.909C365.343,551.759,365.677,557.739,365.931,559.5Z" transform="translate(-268.533 -438.455)"/>
        <path id="Path_32" data-name="Path 32" class="cls-11" d="M899.507,753.23a62,62,0,0,1-4.466,12.118c-1.567,3.287-5.19,7.516-5.174,11.241.028,6.693,7.072,15.651,11.388,20.244a38.215,38.215,0,0,1-7.289,3.759,2.816,2.816,0,0,1-1.785.255,2.941,2.941,0,0,1-1.5-1.53l-4.715-8.2c-2.628-4.562-5.329-9.36-5.547-14.621a36.9,36.9,0,0,1,.388-5.691c.5-4.028.045-8.593,1.013-12.508.885-3.57,2.045-7.111,2.877-10.749.419-1.819.936-3.8,2.444-4.9a6.489,6.489,0,0,1,2.121-.931c3.677-1.033,7.654-1.168,9.668,2.645C900.324,747.007,900.186,750.4,899.507,753.23Z" transform="translate(-645.482 -574.421)"/>
        <path id="Path_33" data-name="Path 33" class="cls-6" d="M829.418,638.5c-2,.727-.13,5.4.407,6.789a1.589,1.589,0,0,0,.583.849,1.649,1.649,0,0,0,1,.119q4.526-.421,9-1.072a4.751,4.751,0,0,0,1.9-.566,3.233,3.233,0,0,0,1.324-2.138c.283-1.414.413-4.763-.8-5.835-.883-.775-2.639-.226-3.793-.107A40.534,40.534,0,0,0,829.418,638.5Z" transform="translate(-608.268 -499.227)"/>
        <path id="Path_34" data-name="Path 34" class="cls-18" d="M829.418,638.5c-2,.727-.13,5.4.407,6.789a1.589,1.589,0,0,0,.583.849,1.649,1.649,0,0,0,1,.119q4.526-.421,9-1.072a4.751,4.751,0,0,0,1.9-.566,3.233,3.233,0,0,0,1.324-2.138c.283-1.414.413-4.763-.8-5.835-.883-.775-2.639-.226-3.793-.107A40.534,40.534,0,0,0,829.418,638.5Z" transform="translate(-608.268 -499.227)"/>
        <path id="Path_35" data-name="Path 35" class="cls-16" d="M848.8,570.712c-.356.594-1.078.942-1.313,1.593-.283.786.266,1.6.546,2.385.39,1.1.283,2.325.651,3.426a1.3,1.3,0,0,0,.388.619,1.432,1.432,0,0,0,.583.229,8.413,8.413,0,0,0,2.484.144.742.742,0,0,1,.484.065.682.682,0,0,1,.215.422,13.3,13.3,0,0,1-.1,6.316c-.178.682-.376,1.511.127,2a1.4,1.4,0,0,0,.642.323c1.573.382,3.089-.781,4.152-2a18.456,18.456,0,0,0,2.435-3.581,3.507,3.507,0,0,0,.419-1.148,4.078,4.078,0,0,0-.218-1.556,26.373,26.373,0,0,1-.815-5.253c-.119-2.263.045-4.636-.823-6.741a3.538,3.538,0,0,0-1.377-1.771,4.462,4.462,0,0,0-2.447-.393c-1.655.065-3.468.283-4.591,1.5C849.92,567.64,849.241,569.973,848.8,570.712Z" transform="translate(-621.82 -448.695)"/>
        <path id="Path_36" data-name="Path 36" class="cls-11" d="M852.247,554.992c-.673-.124-1.18.778-.916,1.414a2.072,2.072,0,0,0,1.649,1.072,14.6,14.6,0,0,1,2.028.3,1.654,1.654,0,0,1,1.259,1.445,1.519,1.519,0,0,1,1.7,1.131,4.649,4.649,0,0,1-.079,2.243c.206.223.594.071.792-.161s.323-.543.588-.693c.566-.328,1.273.407,1.194,1.061a2.926,2.926,0,0,1-1.081,1.607,1.038,1.038,0,0,0-.283.362c-.2.549.535.942,1.1,1.066a3.112,3.112,0,0,0,.147,1.262,1.064,1.064,0,0,0,.967.71c.382-.02.687-.308,1.038-.458s.891-.054.922.328c.591-1.233-.037-2.382.218-3.553.232-1.072,1.177-.673,1.824-1.394.359-.4.328-1,.495-1.513.212-.653.755-1.174.9-1.844.249-1.131-.693-2.153-1.553-2.936a1.072,1.072,0,0,0-.283-1.239,2.41,2.41,0,0,0-1.236-.537.656.656,0,0,1-.334-.133c-.147-.141-.116-.379-.1-.583.283-3.437-5.335-2.484-7.4-2.308a5.325,5.325,0,0,0-2.41.817C853.192,552.619,851.483,554.853,852.247,554.992Z" transform="translate(-624.579 -438.372)"/>
        <path id="Path_37" data-name="Path 37" class="cls-6" d="M867.833,621.867l-.141.031c-3,.75-7.383,3.491-8.367,6.534-1.233,3.824-2.042,8.967-1.151,12.918.619,2.747,2.286,5.142,2.984,7.821.778,2.967.908,5.872,2.116,8.769a6.516,6.516,0,0,0,2.407,3.281,7.239,7.239,0,0,0,3.318.727c3.366.178,8.093,1.318,10.884-1a9.066,9.066,0,0,0,2.854-7.521,26.779,26.779,0,0,0-2.153-8.03L875.9,633.181C874.771,630.245,872.03,621.038,867.833,621.867Z" transform="translate(-629.267 -488.881)"/>
        <path id="Path_38" data-name="Path 38" class="cls-19" d="M875.137,691.022a2.659,2.659,0,0,0-.351,2.5,22.275,22.275,0,0,1,.611,6.073,1.415,1.415,0,0,1-.317,1.01,1.471,1.471,0,0,1-.916.283,6.7,6.7,0,0,1-3.474-.348,6.088,6.088,0,0,1-2.546-3.219,62.585,62.585,0,0,1-3.394-11.476,4.934,4.934,0,0,1-.181-1.943,3.82,3.82,0,0,1,1.754-2.331c.826-.563,1.748-.976,2.546-1.584,1.55-1.191,2.7-3.346,4.809-3.618a3.13,3.13,0,0,1,3.273,2.328C878.282,682.415,876.834,687.659,875.137,691.022Z" transform="translate(-634.105 -527.986)"/>
        <path id="Path_39" data-name="Path 39" class="cls-6" d="M870.836,646.912s-4.291,11.611-5.137,12.46,8.248,5.985,8.248,5.985,5.94-11.292,5.657-16.185S874.179,642.3,870.836,646.912Z" transform="translate(-634.895 -505.01)"/>
        <path id="Path_40" data-name="Path 40" class="cls-16" d="M802,702.759s-.314,3.739-4.9,3.677l-7.753-.11c-3.572-.048-7.151-.17-10.723-.144a10.659,10.659,0,0,0-2.546.662,10.392,10.392,0,0,1-9.357-2.546c-.967-.936-1.779-2.359-1.211-3.581a.817.817,0,0,1,.356-.41.994.994,0,0,1,.447-.057c2.161.068,4.4.62,6.435-.107a1.717,1.717,0,0,1-.263-.911c.031-.317.325-.634.636-.566a.951.951,0,0,1,.416.3,5.074,5.074,0,0,0,4.195,1.658c5.881-.283,11.682-1.53,17.563-1.8a10.177,10.177,0,0,1,4.084.43A4.773,4.773,0,0,1,802,702.759Z" transform="translate(-562.952 -543.988)"/>
        <path id="Path_41" data-name="Path 41" class="cls-16" d="M362.482,962.514a4.185,4.185,0,0,1,1.332.342,1.219,1.219,0,0,1,.707,1.1,1.352,1.352,0,0,1-.809,1.01c-.4.2-.849.305-1.25.515a7.246,7.246,0,0,1-1.089.608,3.074,3.074,0,0,1-1.957-.283,25.776,25.776,0,0,0-8.9-1.474,3.263,3.263,0,0,1-.88-.059,2.669,2.669,0,0,1-1.607-1.98,12.772,12.772,0,0,1,.057-5.711,1.279,1.279,0,0,1,.215-.591,1.111,1.111,0,0,1,.478-.3c2.987-1.115,4.243,1.844,6.2,3.426A15.987,15.987,0,0,0,362.482,962.514Z" transform="translate(-263.474 -728.14)"/>
        <path id="Path_42" data-name="Path 42" class="cls-6" d="M349.313,973.252c.2.031.393.054.588.074a24.661,24.661,0,0,0,4.011.107,1.413,1.413,0,0,0,.733-.175,1.208,1.208,0,0,0,.441-.97,5.48,5.48,0,0,1,.073-1.1.266.266,0,0,1,.308-.24,6.414,6.414,0,0,1,2.939.82,10.09,10.09,0,0,1,4.554,3.7.894.894,0,0,1,.161.475.823.823,0,0,1-.156.413c-1.2,1.875-4.209,1.414-6.048,1.024-2.051-.433-4.022-1.208-6.093-1.533-2.263-.359-4.741-.2-6.707-1.4a2.192,2.192,0,0,1-.795-.738c-.543-.956.125-2.481.806-3.219a.465.465,0,0,1,.7-.076c.945.583,1.559,1.6,2.5,2.187a5.182,5.182,0,0,0,1.983.653Z" transform="translate(-260.177 -738.79)"/>
        <path id="Path_43" data-name="Path 43" class="cls-11" d="M274.894,711.63s-9.283,5.312-6.681,15.037c2.263,8.486,8.791,13.77,12.964,21.025,2.311,4.022,1.89,10.587,2.868,15.274a110.854,110.854,0,0,0,4.944,16.853c.419,1.1,1.106,2.385,2.286,2.421.566.02,1.086-.266,1.646-.283a8.531,8.531,0,0,0,1.578.054c1.349-.308,1.341-2.22,1.035-3.573a112.456,112.456,0,0,1-2.653-19.817c-.226-5.137,1.168-10.593-.283-15.574-1.163-3.96-8.056-25.09-8.056-25.09Z" transform="translate(-206.124 -553.291)"/>
        <path id="Path_44" data-name="Path 44" class="cls-16" d="M295.413,973.134a4.316,4.316,0,0,1,1.2.665,1.222,1.222,0,0,1,.413,1.239,1.341,1.341,0,0,1-1.035.775c-.441.1-.9.085-1.341.19a7.3,7.3,0,0,1-1.205.32,3.161,3.161,0,0,1-1.827-.752,25.784,25.784,0,0,0-8.254-3.638,3.279,3.279,0,0,1-.849-.283,2.615,2.615,0,0,1-1.066-2.314,12.672,12.672,0,0,1,1.474-5.516,1.245,1.245,0,0,1,.356-.52,1.08,1.08,0,0,1,.537-.173c3.168-.339,3.657,2.828,5.151,4.859A15.992,15.992,0,0,0,295.413,973.134Z" transform="translate(-215.948 -733.631)"/>
        <path id="Path_45" data-name="Path 45" class="cls-11" d="M272.523,734.238a11.848,11.848,0,0,0-6.506,3.182c-3.892,3.3-3.615,10.042-2.3,14.969.69,2.6,4.809,10.749,5.414,13.046,1.148,4.384-1.146,9.815-1.346,14.245a111.289,111.289,0,0,0,.6,17.554c.136,1.174.481,2.583,1.612,2.914.537.158,1.131,0,1.672.122a8.308,8.308,0,0,0,1.513.444c1.386.037,1.853-1.816,1.892-3.2a112.184,112.184,0,0,1,2.356-19.857c1.058-5.032,3.765-9.971,3.592-15.156-.141-4.243-.266-8.458-.4-12.686-.144-4.7.509-9.462-.922-13.985a2.632,2.632,0,0,0-.832-1.414,2.578,2.578,0,0,0-1.352-.359,26.982,26.982,0,0,0-4.195.093C273.066,734.176,272.784,734.2,272.523,734.238Z" transform="translate(-202.599 -569.343)"/>
        <path id="Path_46" data-name="Path 46" class="cls-16" d="M290.883,554.2c.354.6,1.078.942,1.31,1.6.283.786-.263,1.6-.546,2.382-.39,1.1-.266,2.325-.648,3.425a1.3,1.3,0,0,1-.39.622,1.452,1.452,0,0,1-.583.226,8.407,8.407,0,0,1-2.481.147.7.7,0,0,0-.484.065.656.656,0,0,0-.215.419,13.252,13.252,0,0,0,.1,6.316c.181.682.376,1.51-.127,2a1.35,1.35,0,0,1-.639.323c-1.576.385-3.092-.781-4.152-2a18.4,18.4,0,0,1-2.435-3.578,3.56,3.56,0,0,1-.422-1.148,4.215,4.215,0,0,1,.218-1.559,26.164,26.164,0,0,0,.815-5.253c.119-2.263-.045-4.636.826-6.741a3.55,3.55,0,0,1,1.375-1.771,4.471,4.471,0,0,1,2.45-.393c1.652.065,3.465.283,4.588,1.5C289.763,551.13,290.445,553.466,290.883,554.2Z" transform="translate(-214.306 -436.855)"/>
        <path id="Path_47" data-name="Path 47" class="cls-6" d="M259.483,589.443c.622-.045,1.25-.048,1.872-.051a15.96,15.96,0,0,1,3.394.243,5.476,5.476,0,0,1,2.95,1.584c.481.537.812,1.191,1.267,1.751a2.408,2.408,0,0,0,1.822,1.024,6.7,6.7,0,0,0,1.434-.373c.69-.158,1.414-.037,2.1-.184A4.326,4.326,0,0,0,276,592.351q1.785-1.414,3.442-2.99c.549-.518,6.28-6.65,6.053-6.811a10.409,10.409,0,0,1,2.308,2.3,1.918,1.918,0,0,1,.433.962,2.044,2.044,0,0,1-.255.953,55.4,55.4,0,0,1-6.956,11.425,27.934,27.934,0,0,1-4.992,5.032c-1.225.931-2.679,1.74-3.434,3.143-1.7,3.145-.02,7.94,0,11.292,0,1.148-.475,2.085-.472,3.253,0,2.037,1.768,3.844,1.131,5.94-.529,1.734-2.523,2.478-4.266,2.981l-6.842,1.98c-1.516.438-3.222.849-4.6.1-1.723-.945-2.1-3.211-2.263-5.168-.407-5.055-.252-11.116-2.345-15.84a14.55,14.55,0,0,1-1.228-8.613,32.661,32.661,0,0,1,1.544-7.541c.379-1.049.877-2.07,1.355-3.075a4.1,4.1,0,0,1,2.362-1.734A8.568,8.568,0,0,1,259.483,589.443Z" transform="translate(-194.503 -460.723)"/>
        <path id="Path_48" data-name="Path 48" class="cls-20" d="M245.441,542.712a4.642,4.642,0,0,1-1.5,2.908c-.8.755-1.8,1.27-2.631,1.98a3.274,3.274,0,0,0-1.318,2.868,1.489,1.489,0,0,0-1.8.566,1.191,1.191,0,0,0,.192,1.247,1.5,1.5,0,0,0,1.188.492,4.7,4.7,0,0,0-2.121,1.714,13.847,13.847,0,0,0-1.3,3.343,14.471,14.471,0,0,1-1.312,2.025,10.545,10.545,0,0,0-.877,4.118,10.837,10.837,0,0,1-2.588,6.045,6.911,6.911,0,0,1-6.005,2.263,5.114,5.114,0,0,1-4.271-4.478,2.728,2.728,0,0,1-2.005-1.887,6.693,6.693,0,0,1-.161-2.865,7.094,7.094,0,0,1,.849-2.976c.987-1.567,2.874-2.263,4.526-3.112a17.427,17.427,0,0,0,2.133-1.3,2.447,2.447,0,0,0,.775-.758,3.2,3.2,0,0,0-.042-2.232,4.5,4.5,0,0,1,.47-3.556,6,6,0,0,1,2.775-1.824l2.662-1.109a1.492,1.492,0,0,0,.6-.371,1.414,1.414,0,0,0,.238-.549,25.9,25.9,0,0,1,1.047-3.867c1.131-2.574,3.85-3.394,6.435-2.942C243.575,538.879,245.662,540.245,245.441,542.712Z" transform="translate(-171.051 -429.02)"/>
        <path id="Path_49" data-name="Path 49" class="cls-6" d="M267.864,621s12.22,1.98,13.374,1.66S282.37,632.8,282.37,632.8s-12.754-.385-16.876-3.038S262.2,621.651,267.864,621Z" transform="translate(-202.652 -488.297)"/>
        <path id="Path_50" data-name="Path 50" class="cls-6" d="M281.5,984.3c.175.054.354.1.529.144a23.42,23.42,0,0,0,3.677.6,1.376,1.376,0,0,0,.7-.071,1.132,1.132,0,0,0,.529-.849,4.986,4.986,0,0,1,.2-1,.306.306,0,0,1,.122-.161.344.344,0,0,1,.192-.023,5.915,5.915,0,0,1,2.6,1.131,9.387,9.387,0,0,1,3.72,3.96.87.87,0,0,1,.088.458.776.776,0,0,1-.2.362c-1.338,1.57-4.042.769-5.683.178-1.827-.656-3.541-1.615-5.4-2.175-2.045-.614-4.331-.778-5.985-2.127a2.017,2.017,0,0,1-.636-.778c-.379-.947.424-2.263,1.131-2.857a.421.421,0,0,1,.645.02c.795.651,1.23,1.663,2.022,2.319A4.753,4.753,0,0,0,281.5,984.3Z" transform="translate(-211.928 -746.434)"/>
        <path id="Path_51" data-name="Path 51" class="cls-6" d="M382.29,410.76H496.727v79.648H382.29Zm113.427,1.021H383.311v77.6H495.7Z" transform="translate(-288.263 -337.526)"/>
        <path id="Path_52" data-name="Path 52" class="cls-16" d="M372.237,549.668a5.916,5.916,0,0,1,.818-3.7l.583,2.4a20.563,20.563,0,0,1,3.222-6.28,9.057,9.057,0,0,1-.665,3.96,31.653,31.653,0,0,1,2.085-3.587c.487,1.369-.752,2.732-.911,4.178a7.223,7.223,0,0,1,1.8-1.884,1.493,1.493,0,0,1-.2,1.31l-1.293,2.532a6.174,6.174,0,0,1,1.23-.99c.4.979-.4,1.98-.868,2.936-.342.7-.506,1.482-.849,2.192a5.14,5.14,0,0,1-3.2,2.721c-.5-.874-1.567-.945-1.731-1.909A25.02,25.02,0,0,1,372.237,549.668Z" transform="translate(-280.999 -431.707)"/>
        <rect id="Rectangle_5" data-name="Rectangle 5" class="cls-6" width="8.013" height="53.065" transform="translate(102.951 98.794)"/>
        <rect id="Rectangle_6" data-name="Rectangle 6" class="cls-6" width="8.013" height="64.877" transform="translate(120.797 86.981)"/>
        <rect id="Rectangle_7" data-name="Rectangle 7" class="cls-6" width="8.013" height="42.5" transform="translate(139.22 109.356)"/>
        <rect id="Rectangle_8" data-name="Rectangle 8" class="cls-6" width="8.013" height="64.877" transform="translate(157.64 86.981)"/>
        <rect id="Rectangle_9" data-name="Rectangle 9" class="cls-6" width="8.013" height="54.937" transform="translate(176.062 96.921)"/>
        <rect id="Rectangle_10" data-name="Rectangle 10" class="cls-6" width="8.013" height="72.101" transform="translate(194.482 79.757)"/>
        <line id="Line_3" data-name="Line 3" class="cls-21" x1="30.925" y1="16.858" transform="translate(216.574 61.32)"/>
      </g>
    </g>
  </g>
</svg>
