<svg xmlns="http://www.w3.org/2000/svg" xmlns:xlink="http://www.w3.org/1999/xlink" width="80" height="74.984" viewBox="0 0 80 74.984">
  <defs>
    <style>
      .cls-1 {
        fill: url(#linear-gradient);
      }

      .cls-12, .cls-2 {
        opacity: 0.18;
      }

      .cls-12, .cls-13, .cls-16, .cls-3, .cls-4 {
        fill: #68e1fd;
      }

      .cls-3 {
        opacity: 0.44;
      }

      .cls-5 {
        fill: url(#linear-gradient-2);
      }

      .cls-6 {
        fill: url(#linear-gradient-3);
      }

      .cls-7 {
        fill: url(#linear-gradient-4);
      }

      .cls-8 {
        fill: url(#linear-gradient-5);
      }

      .cls-9 {
        fill: #473f47;
      }

      .cls-10 {
        fill: url(#linear-gradient-6);
      }

      .cls-11 {
        fill: #fff;
      }

      .cls-13 {
        opacity: 0.5;
      }

      .cls-14 {
        fill: url(#linear-gradient-7);
      }

      .cls-15 {
        fill: #ffbbab;
      }

      .cls-16 {
        opacity: 0.16;
      }

      .cls-17 {
        fill: url(#linear-gradient-8);
      }

      .cls-18 {
        fill: url(#linear-gradient-9);
      }

      .cls-19 {
        fill: #fc682d;
      }

      .cls-20 {
        fill: none;
      }
    </style>
    <linearGradient id="linear-gradient" x1="0.623" y1="-0.201" x2="0.344" y2="1.69" gradientUnits="objectBoundingBox">
      <stop offset="0" stop-color="#053485"/>
      <stop offset="1" stop-color="#010a26"/>
    </linearGradient>
    <linearGradient id="linear-gradient-2" x1="4.142" y1="0.646" x2="4.25" y2="2.924" gradientUnits="objectBoundingBox">
      <stop offset="0.01"/>
      <stop offset="0.08" stop-opacity="0.69"/>
      <stop offset="0.21" stop-opacity="0.322"/>
      <stop offset="1" stop-opacity="0"/>
    </linearGradient>
    <linearGradient id="linear-gradient-3" x1="23.472" y1="0.152" x2="18.891" y2="1.198" xlink:href="#linear-gradient-2"/>
    <linearGradient id="linear-gradient-4" x1="8.571" y1="0.599" x2="5.225" y2="0.372" xlink:href="#linear-gradient-2"/>
    <linearGradient id="linear-gradient-5" x1="3.601" y1="0.771" x2="7.442" y2="-0.01" xlink:href="#linear-gradient-2"/>
    <linearGradient id="linear-gradient-6" x1="27.14" y1="0.715" x2="24.32" y2="-0.18" xlink:href="#linear-gradient-2"/>
    <linearGradient id="linear-gradient-7" x1="6.716" y1="0.539" x2="8.912" y2="0.377" xlink:href="#linear-gradient-2"/>
    <linearGradient id="linear-gradient-8" x1="10.187" y1="1.306" x2="11.747" y2="-1.157" xlink:href="#linear-gradient-2"/>
    <linearGradient id="linear-gradient-9" x1="9.725" y1="0.581" x2="13.81" y2="0.329" xlink:href="#linear-gradient-2"/>
  </defs>
  <g id="page-ico" transform="translate(-138 -87.016)">
    <circle id="Ellipse_23" data-name="Ellipse 23" class="cls-1" cx="35" cy="35" r="35" transform="translate(143 92)"/>
    <g id="Team_work_Monochromatic" data-name="Team work_Monochromatic" transform="translate(138 87.016)">
      <path id="Path_9" data-name="Path 9" class="cls-2" d="M76.736,153.805a19.338,19.338,0,0,0-9.075,11.518c-.848,2.846-1.113,5.846-2.08,8.656-2.752,7.989-10.686,13.186-14.066,20.926a18.86,18.86,0,0,0-.626,13.764,16.129,16.129,0,0,0,9.57,9.737,28.217,28.217,0,0,0,8.524,1.193,77.063,77.063,0,0,0,16.14-.766c2.529-.457,5.021-1.133,7.574-1.428,4.939-.571,9.981.3,14.887-.5a34.3,34.3,0,0,0,9.75-3.453,28.224,28.224,0,0,0,6.526-4.225c5.069-4.65,6.947-12.189,5.585-18.931s-5.642-12.664-11.03-16.94c-2.368-1.88-4.949-3.472-7.432-5.2a83.111,83.111,0,0,1-9.1-7.317C95.053,154.5,86.237,148.705,76.736,153.805Z" transform="translate(-49.876 -151.854)"/>
      <path id="Path_10" data-name="Path 10" class="cls-3" d="M272.083,909.092l-4.635.644a1.191,1.191,0,0,0-.623.211.8.8,0,0,0-.1.976,2.361,2.361,0,0,0,.752.735c-1.1.262-3.014.2-2.958,1.775a1.541,1.541,0,0,0,.938,1.341,3.019,3.019,0,0,0,1.036.158,35.667,35.667,0,0,0,10.231-.622c.633-.164,1.383-.522,1.383-1.175,0-.232-.1-.453-.114-.685-.073-1.482,3.1-.612,3.912-.565q2.719.158,5.438.227c3.7.1,7.41.093,11.112.041a19.754,19.754,0,0,1,3.5.148c.911.15,1.795.432,2.689.659a23.04,23.04,0,0,0,9.013.463c1.36-.2,3.036-.933,2.948-2.307-.075-1.179-1.416-1.791-2.557-2.1a39.392,39.392,0,0,0-5.141-1.02,76.639,76.639,0,0,0-9.245-.458c-6.707-.054-13.414-.058-20.122-.062C277.288,907.48,274.318,908.781,272.083,909.092Z" transform="translate(-249.922 -856.113)"/>
      <path id="Path_11" data-name="Path 11" class="cls-4" d="M460.13,588.5h18.719L475.537,576.6H462.924Z" transform="translate(-428.851 -537.403)"/>
      <path id="Path_12" data-name="Path 12" class="cls-5" d="M460.13,588.5h18.719L475.537,576.6H462.924Z" transform="translate(-428.851 -537.403)"/>
      <path id="Path_13" data-name="Path 13" class="cls-4" d="M302.957,214.459v30.7a3.36,3.36,0,0,1-3.361,3.36H251.09a3.36,3.36,0,0,1-3.36-3.361v-30.7a3.361,3.361,0,0,1,3.36-3.36H299.6a3.361,3.361,0,0,1,3.36,3.359Z" transform="translate(-234.28 -207.072)"/>
      <path id="Path_14" data-name="Path 14" class="cls-6" d="M293.293,649.818a.255.255,0,0,1-.159.272.774.774,0,0,1-.34.048l-.489,0a.182.182,0,0,0-.214.228l-.05,2.094a2.97,2.97,0,0,0,.193,1.4c.105.212.26.4.372.606a.824.824,0,0,1,.09.68q-1.245.052-2.491,0a.611.611,0,0,1-.431-.131.6.6,0,0,1-.117-.223,17.758,17.758,0,0,1-.6-2.117,8.286,8.286,0,0,1-.232-2.083,4.029,4.029,0,0,1,.571-2,1.3,1.3,0,0,1,.34-.387,1.471,1.471,0,0,1,.476-.192,13.718,13.718,0,0,1,2.527-.33,1.328,1.328,0,0,1,.829.124.89.89,0,0,1,.345.8,2.609,2.609,0,0,1-.254.865" transform="translate(-272.576 -613.97)"/>
      <path id="Path_15" data-name="Path 15" class="cls-7" d="M907.4,655.866q-.784-2.6-1.789-5.119a.344.344,0,0,0-.128-.186.349.349,0,0,0-.226-.018l-1.458.207a6.77,6.77,0,0,0,.719,2.34,19.578,19.578,0,0,1,1.234,4.177,1.032,1.032,0,0,0,.132.408.942.942,0,0,0,.612.319c.714.15,1.18.367,1.3-.359A4.6,4.6,0,0,0,907.4,655.866Z" transform="translate(-845.751 -616.632)"/>
      <path id="Path_16" data-name="Path 16" class="cls-8" d="M789.913,663.868l-1.563-.018a.441.441,0,0,0-.309.074c-.08.074-.093.171-.151.251a.632.632,0,0,1-.6.152,13.725,13.725,0,0,1-2.222-.425l.279-1.911a16.821,16.821,0,0,0,4.054.4l.072-2.3-2.067-.018a.416.416,0,0,1-.252-.056.41.41,0,0,1-.114-.331,5.7,5.7,0,0,1,.048-.841.25.25,0,0,1,.074-.176.259.259,0,0,1,.194-.025,25.052,25.052,0,0,0,4.751.173,24.34,24.34,0,0,0,1.271,6.9,25.264,25.264,0,0,1-2.651-.13c-.386-.087-.368-.129-.492-.544A10.128,10.128,0,0,0,789.913,663.868Z" transform="translate(-735.092 -624.184)"/>
      <path id="Path_17" data-name="Path 17" class="cls-9" d="M302.957,214.46v26.92H247.73V214.46a3.361,3.361,0,0,1,3.36-3.36H299.6a3.361,3.361,0,0,1,3.36,3.359Z" transform="translate(-234.28 -207.073)"/>
      <path id="Path_18" data-name="Path 18" class="cls-4" d="M300.107,621.652a5.559,5.559,0,0,0,2.08,1.034.345.345,0,0,1,.252.12.318.318,0,0,1,.011.23,9.324,9.324,0,0,1-.487,1.6,8.049,8.049,0,0,1-3.16-1.114,1.144,1.144,0,0,1-.4-.351,1.257,1.257,0,0,1-.131-.548,2.879,2.879,0,0,1,.193-1.719c.242-.359.377-.123.7.1Z" transform="translate(-281.348 -588.846)"/>
      <path id="Path_19" data-name="Path 19" class="cls-10" d="M294.347,620.381a5.559,5.559,0,0,0,2.08,1.034c.094.017.2.037.252.12a.317.317,0,0,1,.011.23,9.319,9.319,0,0,1-.487,1.6,8.044,8.044,0,0,1-3.161-1.114,1.141,1.141,0,0,1-.4-.35,1.251,1.251,0,0,1-.131-.548,2.878,2.878,0,0,1,.193-1.718c.242-.359.377-.123.7.1Z" transform="translate(-275.98 -587.662)"/>
      <path id="Path_20" data-name="Path 20" class="cls-11" d="M313.561,225.8v25.378H260V225.8a3.242,3.242,0,0,1,3.259-3.224H310.3A3.238,3.238,0,0,1,313.561,225.8Z" transform="translate(-245.716 -217.772)"/>
      <path id="Path_21" data-name="Path 21" class="cls-12" d="M313.561,225.8v25.378H260V225.8a3.242,3.242,0,0,1,3.259-3.224H310.3A3.238,3.238,0,0,1,313.561,225.8Z" transform="translate(-245.716 -217.772)"/>
      <path id="Path_22" data-name="Path 22" class="cls-4" d="M768.769,350.722a4.2,4.2,0,0,1,.385-1.767l-2.635-1.435a7.236,7.236,0,0,0,4.717,10.218l.534-2.959A4.245,4.245,0,0,1,768.769,350.722Z" transform="translate(-717.106 -334.219)"/>
      <path id="Path_23" data-name="Path 23" class="cls-13" d="M854.137,429.665a7.243,7.243,0,0,1-7.987,3.3l.534-2.96a4.17,4.17,0,0,0,1.245.187,4.241,4.241,0,0,0,3.576-1.959Z" transform="translate(-792.02 -409.441)"/>
      <path id="Path_24" data-name="Path 24" class="cls-11" d="M790.493,295.4a7.193,7.193,0,0,1-1.029,3.72l-2.636-1.435a4.243,4.243,0,1,0-7.432-4.051L776.76,292.2a7.24,7.24,0,0,1,13.732,3.2Z" transform="translate(-727.347 -278.901)"/>
      <rect id="Rectangle_3" data-name="Rectangle 3" class="cls-12" width="17.641" height="16.206" transform="translate(18.914 8.131)"/>
      <path id="Path_25" data-name="Path 25" class="cls-11" d="M819.477,951.945a4.856,4.856,0,0,1-2.834-.408.393.393,0,0,1-.146-.132.272.272,0,0,1,.026-.277.6.6,0,0,1,.224-.184,3.182,3.182,0,0,1,.985-.284c.417-.073.835-.146,1.257-.188.272-.026.73-.136.952.082.173.173.136.476.107.7C819.992,951.643,819.916,951.92,819.477,951.945Z" transform="translate(-764.358 -896.135)"/>
      <path id="Path_26" data-name="Path 26" class="cls-11" d="M915.442,937.379a4.845,4.845,0,0,1-2.562,1.279.4.4,0,0,1-.2-.025.272.272,0,0,1-.136-.243.607.607,0,0,1,.079-.279,3.213,3.213,0,0,1,.648-.795c.3-.3.6-.6.926-.87.2-.175.523-.528.827-.476.24.043.385.317.485.513C915.693,936.838,915.787,937.108,915.442,937.379Z" transform="translate(-853.905 -882.662)"/>
      <path id="Path_27" data-name="Path 27" class="cls-9" d="M843.654,764.906q.006.483.015.964a9.178,9.178,0,0,0,1.76.049.173.173,0,0,0,.2-.2c.125-1.595-.08-3.206.107-4.8a3.428,3.428,0,0,1,.228-.97,4.492,4.492,0,0,1,.544-.859,20.045,20.045,0,0,0,1.632-2.667,6.252,6.252,0,0,0,.605-3.035c-.014-1.046-.549-1.5-1.57-1.228a.848.848,0,0,0-.673.506,25.032,25.032,0,0,0-1.636,3.12C843.7,758.651,843.616,761.807,843.654,764.906Z" transform="translate(-789.687 -711.289)"/>
      <path id="Path_28" data-name="Path 28" class="cls-14" d="M843.654,764.906q.006.483.015.964a9.178,9.178,0,0,0,1.76.049.173.173,0,0,0,.2-.2c.125-1.595-.08-3.206.107-4.8a3.428,3.428,0,0,1,.228-.97,4.492,4.492,0,0,1,.544-.859,20.045,20.045,0,0,0,1.632-2.667,6.252,6.252,0,0,0,.605-3.035c-.014-1.046-.549-1.5-1.57-1.228a.848.848,0,0,0-.673.506,25.032,25.032,0,0,0-1.636,3.12C843.7,758.651,843.616,761.807,843.654,764.906Z" transform="translate(-789.687 -711.289)"/>
      <path id="Path_29" data-name="Path 29" class="cls-15" d="M763.3,603.385a8.645,8.645,0,0,1-5.008-3.752,1.112,1.112,0,0,1-.216-.963.167.167,0,0,1,.076-.095c.058-.026.124.01.179.045l2.7,1.767a8.038,8.038,0,0,0,2.379,1.2,3.074,3.074,0,0,1,.272.831A1.537,1.537,0,0,1,763.3,603.385Z" transform="translate(-709.89 -568.2)"/>
      <rect id="Rectangle_4" data-name="Rectangle 4" class="cls-11" width="31.647" height="25.502" transform="translate(52.42 39.674) rotate(180)"/>
      <path id="Path_30" data-name="Path 30" class="cls-16" d="M753.062,711.987a1.1,1.1,0,0,0,.489.186,13.427,13.427,0,0,0,3.522.228.555.555,0,0,0,.326-.093.521.521,0,0,0,.146-.376,3.51,3.51,0,0,0-.073-1.08c-.01-.046-2.862-.042-3.133,0C753.934,710.914,752.389,711.444,753.062,711.987Z" transform="translate(-705.104 -672.822)"/>
      <path id="Path_31" data-name="Path 31" class="cls-16" d="M357.458,553.422a2,2,0,0,1,.012.691,2.412,2.412,0,0,1-.472.876,14.766,14.766,0,0,0-2.02,3.96,8.7,8.7,0,0,1-.2-2.367,4.046,4.046,0,0,1,.065-.836,5.25,5.25,0,0,1,.438-1.088,8.191,8.191,0,0,0,.572-1.737c.088-.422.239-1.492.9-1.42C357.316,551.562,357.4,553,357.458,553.422Z" transform="translate(-334.05 -524.332)"/>
      <path id="Path_32" data-name="Path 32" class="cls-9" d="M885,744.01a14.9,14.9,0,0,1-1.073,2.912c-.377.79-1.247,1.806-1.243,2.7.007,1.608,1.7,3.761,2.737,4.865a9.185,9.185,0,0,1-1.752.9.677.677,0,0,1-.429.061.706.706,0,0,1-.36-.368l-1.133-1.971a7.945,7.945,0,0,1-1.333-3.514,8.869,8.869,0,0,1,.093-1.368,26.754,26.754,0,0,1,.243-3.006c.213-.858.491-1.709.691-2.583a1.909,1.909,0,0,1,.587-1.177,1.565,1.565,0,0,1,.51-.224c.884-.248,1.84-.281,2.323.636A3.137,3.137,0,0,1,885,744.01Z" transform="translate(-823.949 -701.038)"/>
      <path id="Path_33" data-name="Path 33" class="cls-4" d="M828.731,636.785c-.481.175-.031,1.3.1,1.632a.382.382,0,0,0,.14.2.4.4,0,0,0,.241.029q1.088-.1,2.163-.258a1.143,1.143,0,0,0,.457-.136.777.777,0,0,0,.318-.514c.068-.34.1-1.145-.193-1.4-.212-.186-.634-.054-.912-.026A9.741,9.741,0,0,0,828.731,636.785Z" transform="translate(-775.583 -603.313)"/>
      <path id="Path_34" data-name="Path 34" class="cls-17" d="M828.731,636.785c-.481.175-.031,1.3.1,1.632a.382.382,0,0,0,.14.2.4.4,0,0,0,.241.029q1.088-.1,2.163-.258a1.143,1.143,0,0,0,.457-.136.777.777,0,0,0,.318-.514c.068-.34.1-1.145-.193-1.4-.212-.186-.634-.054-.912-.026A9.741,9.741,0,0,0,828.731,636.785Z" transform="translate(-775.583 -603.313)"/>
      <path id="Path_35" data-name="Path 35" class="cls-15" d="M847.746,566.964c-.086.143-.259.226-.315.383-.068.189.064.384.131.573.094.264.068.559.156.823a.313.313,0,0,0,.093.149.343.343,0,0,0,.14.055,2.018,2.018,0,0,0,.6.035.178.178,0,0,1,.116.016.164.164,0,0,1,.052.1,3.194,3.194,0,0,1-.024,1.518c-.043.164-.09.363.031.481a.338.338,0,0,0,.154.078,1.1,1.1,0,0,0,1-.481,4.434,4.434,0,0,0,.585-.861.839.839,0,0,0,.1-.276.978.978,0,0,0-.052-.374,6.344,6.344,0,0,1-.2-1.262,4.875,4.875,0,0,0-.2-1.62.85.85,0,0,0-.331-.426,1.072,1.072,0,0,0-.588-.095,1.539,1.539,0,0,0-1.1.36C848.014,566.225,847.851,566.786,847.746,566.964Z" transform="translate(-793.196 -537.64)"/>
      <path id="Path_36" data-name="Path 36" class="cls-9" d="M851.5,552.251c-.162-.03-.284.187-.22.34a.5.5,0,0,0,.4.258,3.508,3.508,0,0,1,.487.071.4.4,0,0,1,.3.347.365.365,0,0,1,.408.272,1.116,1.116,0,0,1-.019.539c.049.054.143.017.19-.039s.078-.131.141-.167c.136-.079.306.1.287.255a.7.7,0,0,1-.26.386.248.248,0,0,0-.068.087c-.048.132.128.226.265.256a.748.748,0,0,0,.035.3.255.255,0,0,0,.232.171c.092,0,.165-.074.249-.11s.214-.013.222.079c.142-.3-.009-.572.052-.854.056-.258.283-.162.438-.335.086-.1.079-.241.119-.364.051-.157.182-.282.217-.443.06-.272-.167-.517-.373-.706a.258.258,0,0,0-.068-.3.579.579,0,0,0-.3-.129.157.157,0,0,1-.08-.032c-.035-.034-.028-.091-.024-.14.068-.826-1.282-.6-1.779-.555a1.28,1.28,0,0,0-.579.2C851.724,551.68,851.313,552.217,851.5,552.251Z" transform="translate(-796.782 -524.224)"/>
      <path id="Path_37" data-name="Path 37" class="cls-4" d="M860.208,621.827l-.034.008a3.1,3.1,0,0,0-2.011,1.57,6.431,6.431,0,0,0-.277,3.1c.149.66.549,1.236.717,1.88a15.007,15.007,0,0,0,.508,2.107,1.566,1.566,0,0,0,.579.789,1.739,1.739,0,0,0,.8.175c.809.043,1.945.317,2.616-.239a2.179,2.179,0,0,0,.686-1.808,6.432,6.432,0,0,0-.517-1.93l-1.126-2.937C861.875,623.84,861.216,621.628,860.208,621.827Z" transform="translate(-802.874 -589.867)"/>
      <path id="Path_38" data-name="Path 38" class="cls-18" d="M867.088,679.871a.639.639,0,0,0-.084.6,5.359,5.359,0,0,1,.147,1.459.34.34,0,0,1-.076.243.354.354,0,0,1-.22.068,1.61,1.61,0,0,1-.835-.084,1.463,1.463,0,0,1-.612-.774,15.032,15.032,0,0,1-.816-2.758,1.182,1.182,0,0,1-.044-.467.918.918,0,0,1,.421-.56c.2-.135.42-.234.612-.381.372-.286.648-.8,1.156-.869a.752.752,0,0,1,.786.559A4.216,4.216,0,0,1,867.088,679.871Z" transform="translate(-809.161 -640.689)"/>
      <path id="Path_39" data-name="Path 39" class="cls-4" d="M866.891,644.932a31.644,31.644,0,0,1-1.234,2.994c-.2.2,1.982,1.438,1.982,1.438s1.428-2.714,1.36-3.89A1.108,1.108,0,0,0,866.891,644.932Z" transform="translate(-810.189 -610.829)"/>
      <path id="Path_40" data-name="Path 40" class="cls-15" d="M774.14,699.643a1.04,1.04,0,0,1-1.178.884L771.1,700.5c-.859-.012-1.718-.041-2.577-.035a2.563,2.563,0,0,0-.612.159,2.5,2.5,0,0,1-2.249-.612.809.809,0,0,1-.291-.861.2.2,0,0,1,.086-.1.24.24,0,0,1,.107-.014,4.2,4.2,0,0,0,1.547-.026.413.413,0,0,1-.063-.219c.007-.076.078-.152.153-.136a.228.228,0,0,1,.1.073,1.22,1.22,0,0,0,1.008.4c1.413-.068,2.807-.368,4.221-.432a2.447,2.447,0,0,1,.982.1A1.147,1.147,0,0,1,774.14,699.643Z" transform="translate(-716.689 -661.486)"/>
      <path id="Path_41" data-name="Path 41" class="cls-15" d="M351.271,957.143a1.007,1.007,0,0,1,.32.082.293.293,0,0,1,.17.264.325.325,0,0,1-.194.243c-.1.049-.2.073-.3.124A1.744,1.744,0,0,1,351,958a.741.741,0,0,1-.47-.068,6.194,6.194,0,0,0-2.139-.354.783.783,0,0,1-.211-.014.641.641,0,0,1-.386-.476,3.069,3.069,0,0,1,.014-1.372.308.308,0,0,1,.052-.142.268.268,0,0,1,.115-.072c.718-.268,1.02.443,1.489.823A3.841,3.841,0,0,0,351.271,957.143Z" transform="translate(-327.476 -900.816)"/>
      <path id="Path_42" data-name="Path 42" class="cls-4" d="M344.613,971.005c.047.007.095.013.141.018a5.926,5.926,0,0,0,.964.026.341.341,0,0,0,.176-.042.29.29,0,0,0,.106-.233,1.318,1.318,0,0,1,.018-.264.064.064,0,0,1,.074-.058,1.542,1.542,0,0,1,.706.2,2.425,2.425,0,0,1,1.094.889.214.214,0,0,1,.039.114.2.2,0,0,1-.037.1c-.29.451-1.012.34-1.453.246-.493-.1-.967-.29-1.464-.369a4.3,4.3,0,0,1-1.612-.336.526.526,0,0,1-.191-.177.767.767,0,0,1,.194-.774.112.112,0,0,1,.168-.018c.227.14.375.384.6.526a1.247,1.247,0,0,0,.477.157Z" transform="translate(-323.191 -914.658)"/>
      <path id="Path_43" data-name="Path 43" class="cls-9" d="M269.469,711.63a3.352,3.352,0,0,0-1.606,3.614c.544,2.039,2.113,3.309,3.115,5.053.555.967.454,2.544.689,3.671a26.651,26.651,0,0,0,1.188,4.05c.1.265.266.573.549.582.136,0,.261-.064.4-.068a2.057,2.057,0,0,0,.379.013c.324-.074.322-.534.249-.859a27.03,27.03,0,0,1-.638-4.763c-.054-1.234.281-2.546-.068-3.743-.279-.952-1.936-6.03-1.936-6.03Z" transform="translate(-252.942 -673.577)"/>
      <path id="Path_44" data-name="Path 44" class="cls-15" d="M284.807,965.512a1.037,1.037,0,0,1,.29.16.294.294,0,0,1,.1.3.322.322,0,0,1-.249.186c-.106.024-.216.02-.322.046a1.758,1.758,0,0,1-.29.077.761.761,0,0,1-.439-.181,6.2,6.2,0,0,0-1.984-.874.786.786,0,0,1-.2-.068.629.629,0,0,1-.256-.556,3.046,3.046,0,0,1,.354-1.326.3.3,0,0,1,.086-.125.261.261,0,0,1,.129-.042c.761-.081.879.68,1.238,1.168A3.843,3.843,0,0,0,284.807,965.512Z" transform="translate(-265.71 -907.953)"/>
      <path id="Path_45" data-name="Path 45" class="cls-9" d="M265.165,734.067a2.848,2.848,0,0,0-1.564.765c-.935.793-.869,2.413-.553,3.6.166.624,1.156,2.583,1.3,3.135.276,1.054-.275,2.359-.324,3.423a26.745,26.745,0,0,0,.143,4.219c.033.282.116.621.387.7.129.038.272,0,.4.029a2.007,2.007,0,0,0,.364.107c.333.009.445-.436.455-.77a26.957,26.957,0,0,1,.566-4.772c.254-1.209.9-2.4.863-3.642-.034-1.02-.064-2.033-.1-3.049a12.2,12.2,0,0,0-.222-3.361.632.632,0,0,0-.2-.34.619.619,0,0,0-.325-.086,6.488,6.488,0,0,0-1.008.022Z" transform="translate(-248.361 -694.438)"/>
      <path id="Path_46" data-name="Path 46" class="cls-15" d="M281.979,550.454c.085.143.259.226.315.383.068.189-.063.383-.131.572-.094.264-.064.559-.156.823a.311.311,0,0,1-.094.149.348.348,0,0,1-.14.054,2.022,2.022,0,0,1-.6.035.169.169,0,0,0-.116.016.158.158,0,0,0-.052.1,3.185,3.185,0,0,0,.023,1.518c.044.164.09.363-.031.481a.325.325,0,0,1-.154.078,1.093,1.093,0,0,1-1-.481,4.427,4.427,0,0,1-.585-.86.854.854,0,0,1-.1-.276,1.013,1.013,0,0,1,.052-.375,6.289,6.289,0,0,0,.2-1.262,4.858,4.858,0,0,1,.2-1.62.854.854,0,0,1,.33-.426,1.075,1.075,0,0,1,.589-.094,1.537,1.537,0,0,1,1.1.361C281.71,549.715,281.874,550.277,281.979,550.454Z" transform="translate(-263.576 -522.252)"/>
      <path id="Path_47" data-name="Path 47" class="cls-4" d="M253.455,584.206c.15-.011.3-.012.45-.012a3.835,3.835,0,0,1,.816.058,1.316,1.316,0,0,1,.709.381c.116.129.2.286.3.421a.579.579,0,0,0,.438.246,1.612,1.612,0,0,0,.345-.09c.166-.038.34-.009.505-.044a1.039,1.039,0,0,0,.4-.261q.429-.34.827-.719a19.366,19.366,0,0,0,1.455-1.637,2.5,2.5,0,0,1,.555.553.46.46,0,0,1,.1.231.49.49,0,0,1-.061.229,13.312,13.312,0,0,1-1.672,2.746,6.71,6.71,0,0,1-1.2,1.209,2.637,2.637,0,0,0-.825.755c-.408.756,0,1.908,0,2.714,0,.276-.114.5-.114.782,0,.489.425.924.272,1.428-.127.417-.606.6-1.025.717l-1.644.476a1.491,1.491,0,0,1-1.107.024,1.469,1.469,0,0,1-.544-1.242,12.046,12.046,0,0,0-.564-3.807,3.5,3.5,0,0,1-.295-2.07,7.849,7.849,0,0,1,.371-1.812c.091-.252.211-.5.326-.739a.986.986,0,0,1,.568-.417A2.057,2.057,0,0,1,253.455,584.206Z" transform="translate(-237.839 -553.272)"/>
      <path id="Path_48" data-name="Path 48" class="cls-19" d="M225.237,539.392a1.116,1.116,0,0,1-.362.7c-.192.182-.433.305-.632.476a.787.787,0,0,0-.317.689.358.358,0,0,0-.433.136.286.286,0,0,0,.046.3.36.36,0,0,0,.286.118,1.13,1.13,0,0,0-.51.412,3.328,3.328,0,0,0-.313.8,3.479,3.479,0,0,1-.315.487,2.534,2.534,0,0,0-.211.99,2.6,2.6,0,0,1-.622,1.453,1.661,1.661,0,0,1-1.443.544,1.229,1.229,0,0,1-1.026-1.076.656.656,0,0,1-.482-.453,1.608,1.608,0,0,1-.039-.689,1.7,1.7,0,0,1,.2-.715,2.538,2.538,0,0,1,1.088-.748,4.17,4.17,0,0,0,.513-.312.587.587,0,0,0,.186-.182.768.768,0,0,0-.01-.536,1.083,1.083,0,0,1,.113-.855,1.441,1.441,0,0,1,.667-.438l.64-.267a.359.359,0,0,0,.144-.089.341.341,0,0,0,.057-.132,6.225,6.225,0,0,1,.252-.929,1.346,1.346,0,0,1,1.547-.707C224.789,538.471,225.29,538.8,225.237,539.392Z" transform="translate(-207.359 -512.069)"/>
      <path id="Path_49" data-name="Path 49" class="cls-4" d="M264.1,621a31.563,31.563,0,0,0,3.214.4c.277-.077.272,2.437.272,2.437s-3.065-.092-4.056-.73A1.111,1.111,0,0,1,264.1,621Z" transform="translate(-248.43 -589.108)"/>
      <path id="Path_50" data-name="Path 50" class="cls-4" d="M277.2,981.757c.042.013.085.024.127.035a5.622,5.622,0,0,0,.884.145.331.331,0,0,0,.167-.017.272.272,0,0,0,.127-.2,1.194,1.194,0,0,1,.049-.241.073.073,0,0,1,.029-.039.083.083,0,0,1,.046-.005,1.423,1.423,0,0,1,.624.272,2.256,2.256,0,0,1,.894.952.209.209,0,0,1,.021.11.186.186,0,0,1-.048.087c-.322.377-.971.185-1.366.043-.439-.158-.851-.388-1.3-.523a3.96,3.96,0,0,1-1.438-.511.484.484,0,0,1-.153-.187.715.715,0,0,1,.272-.687.1.1,0,0,1,.155,0c.191.156.3.4.486.557A1.143,1.143,0,0,0,277.2,981.757Z" transform="translate(-260.485 -924.592)"/>
      <path id="Path_51" data-name="Path 51" class="cls-4" d="M382.29,410.76h27.5V429.9h-27.5Zm27.26.245H382.535v18.65h27.011Z" transform="translate(-359.693 -393.16)"/>
      <path id="Path_52" data-name="Path 52" class="cls-15" d="M372.179,543.911a1.423,1.423,0,0,1,.2-.889l.14.577a4.941,4.941,0,0,1,.774-1.509,2.177,2.177,0,0,1-.16.952,7.606,7.606,0,0,1,.5-.862c.117.329-.181.657-.219,1a1.736,1.736,0,0,1,.433-.453.359.359,0,0,1-.049.315l-.311.608a1.485,1.485,0,0,1,.3-.238c.1.235-.1.476-.209.706-.082.169-.122.356-.2.527a1.235,1.235,0,0,1-.769.654c-.12-.21-.377-.227-.416-.459A6.019,6.019,0,0,1,372.179,543.911Z" transform="translate(-350.253 -515.562)"/>
      <rect id="Rectangle_5" data-name="Rectangle 5" class="cls-4" width="1.926" height="12.753" transform="translate(24.742 23.743)"/>
      <rect id="Rectangle_6" data-name="Rectangle 6" class="cls-4" width="1.926" height="15.592" transform="translate(29.031 20.904)"/>
      <rect id="Rectangle_7" data-name="Rectangle 7" class="cls-4" width="1.926" height="10.214" transform="translate(33.458 26.281)"/>
      <rect id="Rectangle_8" data-name="Rectangle 8" class="cls-4" width="1.926" height="15.592" transform="translate(37.885 20.904)"/>
      <rect id="Rectangle_9" data-name="Rectangle 9" class="cls-4" width="1.926" height="13.203" transform="translate(42.312 23.293)"/>
      <rect id="Rectangle_10" data-name="Rectangle 10" class="cls-4" width="1.926" height="17.328" transform="translate(46.739 19.168)"/>
      <line id="Line_3" data-name="Line 3" class="cls-20" x1="7.432" y1="4.052" transform="translate(52.048 14.737)"/>
    </g>
  </g>
</svg>
